<svg fill="none" height="100%" width="100%" viewBox="0 0 1000 1000" xmlns:xlink="http://www.w3.org/1999/xlink" xmlns="http://www.w3.org/2000/svg"><defs><clipPath id="i0"><rect height="1000" width="1000" y="0" x="0" /></clipPath><g id="i1"><g transform="matrix(2,0,0,2,593.24,280.02)" id="i2"><g id="i2"><rect ry="9.08" rx="9.08" height="36.2" width="72.4" y="-18.1" x="-36.2" fill="#d06d2f" /></g></g><g transform="matrix(2,0,0,2,554.56,266.34)" id="i3"><g id="i3"><path fill="#ffffff" d="M11.9,3.1C11.9,3.1,3.58,6.15,3.58,6.15C3.58,6.15,11.9,9.17,11.9,9.17C11.9,9.17,11.9,12.29,11.9,12.29C11.9,12.29,0,7.77,0,7.77C0,7.77,0,4.52,0,4.52C0,4.52,11.9,0,11.9,0C11.9,0,11.9,3.1,11.9,3.1Z" /></g></g><g transform="matrix(2,0,0,2,579.76,254.04)" id="i4"><g id="i4"><path fill="#ffffff" d="M8.25,0C8.25,0,11.72,0,11.72,0C11.72,0,3.47,23.54,3.47,23.54C3.47,23.54,0,23.54,0,23.54C0,23.54,8.25,0,8.25,0Z" /></g></g><g transform="matrix(2,0,0,2,604.1,266.34)" id="i5"><g id="i5"><path fill="#ffffff" d="M11.9,4.52C11.9,4.52,11.9,7.77,11.9,7.77C11.9,7.77,0,12.29,0,12.29C0,12.29,0,9.17,0,9.17C0,9.17,8.32,6.15,8.32,6.15C8.32,6.15,0,3.1,0,3.1C0,3.1,0,0,0,0C0,0,11.9,4.52,11.9,4.52Z" /></g></g></g><clipPath id="i6"><path d="M674,230C674,230,510,230,510,230C510,230,510,326,510,326C510,326,674,326,674,326C674,326,674,230,674,230Z" /></clipPath><clipPath id="i7"><path d="M674,230C674,230,510,230,510,230C510,230,510,326,510,326C510,326,674,326,674,326C674,326,674,230,674,230Z" /></clipPath><g id="i8"><g transform="matrix(2,0,0,2,188.32,801)" id="i9"><g id="i9"><rect ry="9.08" rx="9.08" height="36.2" width="72.4" y="-18.1" x="-36.2" fill="#d06d2f" /></g></g><g transform="matrix(2,0,0,2,138.24,786.28)" id="i10"><g id="i10"><path fill="#ffffff" d="M11.57,0C11.57,0,11.57,12.6,11.57,12.6C11.57,12.6,8.65,12.6,8.65,12.6C8.65,12.6,8.65,7.43,8.65,7.43C8.65,7.43,2.92,7.43,2.92,7.43C2.92,7.43,2.92,12.6,2.92,12.6C2.92,12.6,0,12.6,0,12.6C0,12.6,0,0,0,0C0,0,2.92,0,2.92,0C2.92,0,2.92,4.97,2.92,4.97C2.92,4.97,8.65,4.97,8.65,4.97C8.65,4.97,8.65,0,8.65,0C8.65,0,11.57,0,11.57,0Z" /></g></g><g transform="matrix(2,0,0,2,164.5,786.26)" id="i11"><g id="i11"><path fill="#ffffff" d="M4.03,2.38C4.03,2.38,0,2.38,0,2.38C0,2.38,0,0,0,0C0,0,10.98,0,10.98,0C10.98,0,10.98,2.38,10.98,2.38C10.98,2.38,6.95,2.38,6.95,2.38C6.95,2.38,6.95,12.61,6.95,12.61C6.95,12.61,4.03,12.61,4.03,12.61C4.03,12.61,4.03,2.38,4.03,2.38Z" /></g></g><g transform="matrix(2,0,0,2,189.58,786.28)" id="i12"><g id="i12"><path fill="#ffffff" d="M11.47,12.6C11.47,12.6,11.45,5.04,11.45,5.04C11.45,5.04,7.74,11.27,7.74,11.27C7.74,11.27,6.43,11.27,6.43,11.27C6.43,11.27,2.74,5.2,2.74,5.2C2.74,5.2,2.74,12.6,2.74,12.6C2.74,12.6,0,12.6,0,12.6C0,12.6,0,0,0,0C0,0,2.41,0,2.41,0C2.41,0,7.13,7.83,7.13,7.83C7.13,7.83,11.77,0,11.77,0C11.77,0,14.17,0,14.17,0C14.17,0,14.21,12.6,14.21,12.6C14.21,12.6,11.47,12.6,11.47,12.6Z" /></g></g><g transform="matrix(2,0,0,2,223.96,786.28)" id="i13"><g id="i13"><path fill="#ffffff" d="M0,0C0,0,2.92,0,2.92,0C2.92,0,2.92,10.23,2.92,10.23C2.92,10.23,9.24,10.23,9.24,10.23C9.24,10.23,9.24,12.61,9.24,12.61C9.24,12.61,0,12.61,0,12.61C0,12.61,0,0.01,0,0.01C0,0.01,0,0,0,0Z" /></g></g></g><clipPath id="i14"><path d="M268,754C268,754,106,754,106,754C106,754,106,846,106,846C106,846,268,846,268,846C268,846,268,754,268,754Z" /></clipPath><g id="i15"><g transform="matrix(2,0,0,2,188.32,801)" visibility="hidden" id="i9"><animate repeatCount="indefinite" begin="0s" calcMode="discrete" dur="5.017s" values="hidden; visible; visible" keyTimes="0; 0.731049; 1" attributeName="visibility" /><g id="i9"><rect ry="9.08" rx="9.08" height="36.2" width="72.4" y="-18.1" x="-36.2" fill="#d06d2f" /></g></g><g transform="matrix(2,0,0,2,138.24,786.28)" visibility="hidden" id="i10"><animate repeatCount="indefinite" begin="0s" calcMode="discrete" dur="5.017s" values="hidden; visible; visible" keyTimes="0; 0.731049; 1" attributeName="visibility" /><g id="i10"><path fill="#ffffff" d="M11.57,0C11.57,0,11.57,12.6,11.57,12.6C11.57,12.6,8.65,12.6,8.65,12.6C8.65,12.6,8.65,7.43,8.65,7.43C8.65,7.43,2.92,7.43,2.92,7.43C2.92,7.43,2.92,12.6,2.92,12.6C2.92,12.6,0,12.6,0,12.6C0,12.6,0,0,0,0C0,0,2.92,0,2.92,0C2.92,0,2.92,4.97,2.92,4.97C2.92,4.97,8.65,4.97,8.65,4.97C8.65,4.97,8.65,0,8.65,0C8.65,0,11.57,0,11.57,0Z" /></g></g><g transform="matrix(2,0,0,2,164.5,786.26)" visibility="hidden" id="i11"><animate repeatCount="indefinite" begin="0s" calcMode="discrete" dur="5.017s" values="hidden; visible; visible" keyTimes="0; 0.731049; 1" attributeName="visibility" /><g id="i11"><path fill="#ffffff" d="M4.03,2.38C4.03,2.38,0,2.38,0,2.38C0,2.38,0,0,0,0C0,0,10.98,0,10.98,0C10.98,0,10.98,2.38,10.98,2.38C10.98,2.38,6.95,2.38,6.95,2.38C6.95,2.38,6.95,12.61,6.95,12.61C6.95,12.61,4.03,12.61,4.03,12.61C4.03,12.61,4.03,2.38,4.03,2.38Z" /></g></g><g transform="matrix(2,0,0,2,189.58,786.28)" visibility="hidden" id="i12"><animate repeatCount="indefinite" begin="0s" calcMode="discrete" dur="5.017s" values="hidden; visible; visible" keyTimes="0; 0.731049; 1" attributeName="visibility" /><g id="i12"><path fill="#ffffff" d="M11.47,12.6C11.47,12.6,11.45,5.04,11.45,5.04C11.45,5.04,7.74,11.27,7.74,11.27C7.74,11.27,6.43,11.27,6.43,11.27C6.43,11.27,2.74,5.2,2.74,5.2C2.74,5.2,2.74,12.6,2.74,12.6C2.74,12.6,0,12.6,0,12.6C0,12.6,0,0,0,0C0,0,2.41,0,2.41,0C2.41,0,7.13,7.83,7.13,7.83C7.13,7.83,11.77,0,11.77,0C11.77,0,14.17,0,14.17,0C14.17,0,14.21,12.6,14.21,12.6C14.21,12.6,11.47,12.6,11.47,12.6Z" /></g></g><g transform="matrix(2,0,0,2,223.96,786.28)" visibility="hidden" id="i13"><animate repeatCount="indefinite" begin="0s" calcMode="discrete" dur="5.017s" values="hidden; visible; visible" keyTimes="0; 0.731049; 1" attributeName="visibility" /><g id="i13"><path fill="#ffffff" d="M0,0C0,0,2.92,0,2.92,0C2.92,0,2.92,10.23,2.92,10.23C2.92,10.23,9.24,10.23,9.24,10.23C9.24,10.23,9.24,12.61,9.24,12.61C9.24,12.61,0,12.61,0,12.61C0,12.61,0,0.01,0,0.01C0,0.01,0,0,0,0Z" /></g></g></g><clipPath id="i16"><path d="M268,754C268,754,106,754,106,754C106,754,106,846,106,846C106,846,268,846,268,846C268,846,268,754,268,754Z" /></clipPath><g id="i17"><g transform="matrix(2,0,0,2,240.48,494.74)" visibility="hidden" id="i18"><animate repeatCount="indefinite" begin="0s" calcMode="discrete" dur="5.017s" values="hidden; visible; visible" keyTimes="0; 0.797053; 1" attributeName="visibility" /><g id="i18"><rect ry="9.08" rx="9.08" height="36.2" width="72.4" y="-18.1" x="-36.2" fill="#d06d2f" /></g></g><g transform="matrix(2,0,0,2,219.22,479.88)" visibility="hidden" id="i19"><animate repeatCount="indefinite" begin="0s" calcMode="discrete" dur="5.017s" values="hidden; visible; visible" keyTimes="0; 0.797053; 1" attributeName="visibility" /><g id="i19"><path fill="#ffffff" d="M0,11.76C0,11.76,1.74,9.68,1.74,9.68C2.47,10.66,3.28,11.17,4.25,11.17C5.5,11.17,6.16,10.42,6.16,8.93C6.16,8.93,6.16,2.51,6.16,2.51C6.16,2.51,1.42,2.51,1.42,2.51C1.42,2.51,1.42,0,1.42,0C1.42,0,9.27,0,9.27,0C9.27,0,9.27,8.76,9.27,8.76C9.27,12.1,7.59,13.74,4.41,13.74C2.6,13.74,1,13.05,0.01,11.77C0.01,11.77,0.99,13.04,0,11.76Z" /></g></g><g transform="matrix(2,0,0,2,241.78,479.42)" visibility="hidden" id="i20"><animate repeatCount="indefinite" begin="0s" calcMode="discrete" dur="5.017s" values="hidden; visible; visible" keyTimes="0; 0.797053; 1" attributeName="visibility" /><g id="i20"><path fill="#ffffff" d="M0,12.4C0,12.4,1.06,10.05,1.06,10.05C2.2,10.88,3.89,11.46,5.52,11.46C7.37,11.46,8.12,10.84,8.12,10.01C8.12,7.48,0.27,9.22,0.27,4.2C0.27,1.91,2.12,0,5.96,0C7.66,0,9.39,0.41,10.65,1.2C10.65,1.2,9.69,3.57,9.69,3.57C8.44,2.86,7.14,2.51,5.95,2.51C4.1,2.51,3.39,3.21,3.39,4.05C3.39,6.54,11.24,4.82,11.24,9.78C11.24,12.04,9.37,13.97,5.51,13.97C3.37,13.97,1.21,13.33,0.01,12.41C0.01,12.41,1.2,13.32,0,12.4Z" /></g></g></g><clipPath id="i21"><path d="M322,450C322,450,164,452,164,452C164,452,164,540,164,540C164,540,322,538,322,538C322,538,322,450,322,450Z" /></clipPath><g id="i22"><g transform="matrix(2,0,0,2,240.48,494.74)" id="i18"><g id="i18"><rect ry="9.08" rx="9.08" height="36.2" width="72.4" y="-18.1" x="-36.2" fill="#d06d2f" /></g></g><g transform="matrix(2,0,0,2,219.22,479.88)" id="i19"><g id="i19"><path fill="#ffffff" d="M0,11.76C0,11.76,1.74,9.68,1.74,9.68C2.47,10.66,3.28,11.17,4.25,11.17C5.5,11.17,6.16,10.42,6.16,8.93C6.16,8.93,6.16,2.51,6.16,2.51C6.16,2.51,1.42,2.51,1.42,2.51C1.42,2.51,1.42,0,1.42,0C1.42,0,9.27,0,9.27,0C9.27,0,9.27,8.76,9.27,8.76C9.27,12.1,7.59,13.74,4.41,13.74C2.6,13.74,1,13.05,0.01,11.77C0.01,11.77,0.99,13.04,0,11.76Z" /></g></g><g transform="matrix(2,0,0,2,241.78,479.42)" id="i20"><g id="i20"><path fill="#ffffff" d="M0,12.4C0,12.4,1.06,10.05,1.06,10.05C2.2,10.88,3.89,11.46,5.52,11.46C7.37,11.46,8.12,10.84,8.12,10.01C8.12,7.48,0.27,9.22,0.27,4.2C0.27,1.91,2.12,0,5.96,0C7.66,0,9.39,0.41,10.65,1.2C10.65,1.2,9.69,3.57,9.69,3.57C8.44,2.86,7.14,2.51,5.95,2.51C4.1,2.51,3.39,3.21,3.39,4.05C3.39,6.54,11.24,4.82,11.24,9.78C11.24,12.04,9.37,13.97,5.51,13.97C3.37,13.97,1.21,13.33,0.01,12.41C0.01,12.41,1.2,13.32,0,12.4Z" /></g></g></g><clipPath id="i23"><path d="M322,450C322,450,164,452,164,452C164,452,164,540,164,540C164,540,322,538,322,538C322,538,322,450,322,450Z" /></clipPath><g id="i24"><g transform="matrix(2,0,0,2,624.06,754.52)" visibility="hidden" id="i25"><animate repeatCount="indefinite" begin="0s" calcMode="discrete" dur="5.017s" values="hidden; visible; visible" keyTimes="0; 0.399027; 1" attributeName="visibility" /><g id="i25"><rect ry="9.08" rx="9.08" height="36.2" width="72.4" y="-18.1" x="-36.2" fill="#d06d2f" /></g></g><g transform="matrix(2,0,0,2,583.34,733.96)" visibility="hidden" id="i26"><animate repeatCount="indefinite" begin="0s" calcMode="discrete" dur="5.017s" values="hidden; visible; visible" keyTimes="0; 0.399027; 1" attributeName="visibility" /><g id="i26"><path fill="#ffffff" d="M0.01,8.82C0.01,3.68,3.95,0,9.26,0C12.21,0,14.67,1.07,16.27,3.02C16.27,3.02,13.74,5.36,13.74,5.36C12.6,4.04,11.16,3.36,9.45,3.36C6.26,3.36,3.99,5.6,3.99,8.82C3.99,12.04,6.26,14.28,9.45,14.28C11.16,14.28,12.59,13.6,13.74,12.26C13.74,12.26,16.27,14.6,16.27,14.6C14.66,16.57,12.2,17.64,9.23,17.64C3.94,17.64,0,13.96,0,8.82C0,8.82,0.01,13.96,0.01,8.82Z" /></g></g><g transform="matrix(2,0,0,2,619.9,740.34)" visibility="hidden" id="i27"><animate repeatCount="indefinite" begin="0s" calcMode="discrete" dur="5.017s" values="hidden; visible; visible" keyTimes="0; 0.399027; 1" attributeName="visibility" /><g id="i27"><path fill="#ffffff" d="M11.59,7.11C11.59,7.11,7.35,7.11,7.35,7.11C7.35,7.11,7.35,11.25,7.35,11.25C7.35,11.25,4.21,11.25,4.21,11.25C4.21,11.25,4.21,7.11,4.21,7.11C4.21,7.11,0,7.11,0,7.11C0,7.11,0,4.14,0,4.14C0,4.14,4.21,4.14,4.21,4.14C4.21,4.14,4.21,0,4.21,0C4.21,0,7.35,0,7.35,0C7.35,0,7.35,4.14,7.35,4.14C7.35,4.14,11.59,4.14,11.59,4.14C11.59,4.14,11.59,7.11,11.59,7.11Z" /></g></g><g transform="matrix(2,0,0,2,649.34,740.34)" visibility="hidden" id="i28"><animate repeatCount="indefinite" begin="0s" calcMode="discrete" dur="5.017s" values="hidden; visible; visible" keyTimes="0; 0.399027; 1" attributeName="visibility" /><g id="i28"><path fill="#ffffff" d="M11.59,7.11C11.59,7.11,7.35,7.11,7.35,7.11C7.35,7.11,7.35,11.25,7.35,11.25C7.35,11.25,4.21,11.25,4.21,11.25C4.21,11.25,4.21,7.11,4.21,7.11C4.21,7.11,0,7.11,0,7.11C0,7.11,0,4.14,0,4.14C0,4.14,4.21,4.14,4.21,4.14C4.21,4.14,4.21,0,4.21,0C4.21,0,7.35,0,7.35,0C7.35,0,7.35,4.14,7.35,4.14C7.35,4.14,11.59,4.14,11.59,4.14C11.59,4.14,11.59,7.11,11.59,7.11Z" /></g></g></g><clipPath id="i29"><path d="M702,708C702,708,544,708,544,708C544,708,544,798,544,798C544,798,702,798,702,798C702,798,702,708,702,708Z" /></clipPath><g id="i30"><g transform="matrix(2,0,0,2,846.82,535.34)" visibility="hidden" id="i31"><animate repeatCount="indefinite" begin="0s" calcMode="discrete" dur="5.017s" values="hidden; visible; visible" keyTimes="0; 0.638042; 1" attributeName="visibility" /><g id="i31"><rect ry="9.08" rx="9.08" height="36.2" width="72.4" y="-18.1" x="-36.2" fill="#d06d2f" /></g></g><g transform="matrix(2,0,0,2,797.52,521.94)" visibility="hidden" id="i32"><animate repeatCount="indefinite" begin="0s" calcMode="discrete" dur="5.017s" values="hidden; visible; visible" keyTimes="0; 0.638042; 1" attributeName="visibility" /><g id="i32"><path fill="#ffffff" d="M0,11.13C0,11.13,1.64,9.16,1.64,9.16C2.33,10.09,3.1,10.57,4.01,10.57C5.2,10.57,5.82,9.86,5.82,8.45C5.82,8.45,5.82,2.37,5.82,2.37C5.82,2.37,1.33,2.37,1.33,2.37C1.33,2.37,1.33,0,1.33,0C1.33,0,8.76,0,8.76,0C8.76,0,8.76,8.29,8.76,8.29C8.76,11.45,7.17,13,4.16,13C2.44,13,0.93,12.34,0,11.14C0,11.14,0.93,12.33,0,11.13Z" /></g></g><g transform="matrix(2,0,0,2,817,521.92)" visibility="hidden" id="i33"><animate repeatCount="indefinite" begin="0s" calcMode="discrete" dur="5.017s" values="hidden; visible; visible" keyTimes="0; 0.638042; 1" attributeName="visibility" /><g id="i33"><path fill="#ffffff" d="M9.17,7.8C9.17,7.8,7.14,2.91,7.14,2.91C7.14,2.91,5.11,7.8,5.11,7.8C5.11,7.8,9.16,7.8,9.16,7.8C9.16,7.8,9.17,7.8,9.17,7.8ZM10.1,10.05C10.1,10.05,4.16,10.05,4.16,10.05C4.16,10.05,3.03,12.79,3.03,12.79C3.03,12.79,0,12.79,0,12.79C0,12.79,5.7,0,5.7,0C5.7,0,8.62,0,8.62,0C8.62,0,14.34,12.79,14.34,12.79C14.34,12.79,11.23,12.79,11.23,12.79C11.23,12.79,10.1,10.05,10.1,10.05Z" /></g></g><g transform="matrix(2,0,0,2,843.58,521.92)" visibility="hidden" id="i34"><animate repeatCount="indefinite" begin="0s" calcMode="discrete" dur="5.017s" values="hidden; visible; visible" keyTimes="0; 0.638042; 1" attributeName="visibility" /><g id="i34"><path fill="#ffffff" d="M13.97,0C13.97,0,8.44,12.79,8.44,12.79C8.44,12.79,5.52,12.79,5.52,12.79C5.52,12.79,0,0,0,0C0,0,3.2,0,3.2,0C3.2,0,7.09,9.13,7.09,9.13C7.09,9.13,11.04,0,11.04,0C11.04,0,13.98,0,13.98,0C13.98,0,13.97,0,13.97,0Z" /></g></g><g transform="matrix(2,0,0,2,869.44,521.92)" visibility="hidden" id="i35"><animate repeatCount="indefinite" begin="0s" calcMode="discrete" dur="5.017s" values="hidden; visible; visible" keyTimes="0; 0.638042; 1" attributeName="visibility" /><g id="i35"><path fill="#ffffff" d="M9.17,7.8C9.17,7.8,7.14,2.91,7.14,2.91C7.14,2.91,5.11,7.8,5.11,7.8C5.11,7.8,9.16,7.8,9.16,7.8C9.16,7.8,9.17,7.8,9.17,7.8ZM10.1,10.05C10.1,10.05,4.16,10.05,4.16,10.05C4.16,10.05,3.03,12.79,3.03,12.79C3.03,12.79,0,12.79,0,12.79C0,12.79,5.7,0,5.7,0C5.7,0,8.62,0,8.62,0C8.62,0,14.34,12.79,14.34,12.79C14.34,12.79,11.23,12.79,11.23,12.79C11.23,12.79,10.1,10.05,10.1,10.05Z" /></g></g></g><clipPath id="i36"><path d="M925,495C925,495,770,492,770,492C770,492,772,579,772,579C772,579,923,582,923,582C923,582,925,495,925,495Z" /></clipPath><g id="i37"><g transform="matrix(2,0,0,2,846.82,535.34)" id="i31"><g id="i31"><rect ry="9.08" rx="9.08" height="36.2" width="72.4" y="-18.1" x="-36.2" fill="#d06d2f" /></g></g><g transform="matrix(2,0,0,2,797.52,521.94)" id="i32"><g id="i32"><path fill="#ffffff" d="M0,11.13C0,11.13,1.64,9.16,1.64,9.16C2.33,10.09,3.1,10.57,4.01,10.57C5.2,10.57,5.82,9.86,5.82,8.45C5.82,8.45,5.82,2.37,5.82,2.37C5.82,2.37,1.33,2.37,1.33,2.37C1.33,2.37,1.33,0,1.33,0C1.33,0,8.76,0,8.76,0C8.76,0,8.76,8.29,8.76,8.29C8.76,11.45,7.17,13,4.16,13C2.44,13,0.93,12.34,0,11.14C0,11.14,0.93,12.33,0,11.13Z" /></g></g><g transform="matrix(2,0,0,2,817,521.92)" id="i33"><g id="i33"><path fill="#ffffff" d="M9.17,7.8C9.17,7.8,7.14,2.91,7.14,2.91C7.14,2.91,5.11,7.8,5.11,7.8C5.11,7.8,9.16,7.8,9.16,7.8C9.16,7.8,9.17,7.8,9.17,7.8ZM10.1,10.05C10.1,10.05,4.16,10.05,4.16,10.05C4.16,10.05,3.03,12.79,3.03,12.79C3.03,12.79,0,12.79,0,12.79C0,12.79,5.7,0,5.7,0C5.7,0,8.62,0,8.62,0C8.62,0,14.34,12.79,14.34,12.79C14.34,12.79,11.23,12.79,11.23,12.79C11.23,12.79,10.1,10.05,10.1,10.05Z" /></g></g><g transform="matrix(2,0,0,2,843.58,521.92)" id="i34"><g id="i34"><path fill="#ffffff" d="M13.97,0C13.97,0,8.44,12.79,8.44,12.79C8.44,12.79,5.52,12.79,5.52,12.79C5.52,12.79,0,0,0,0C0,0,3.2,0,3.2,0C3.2,0,7.09,9.13,7.09,9.13C7.09,9.13,11.04,0,11.04,0C11.04,0,13.98,0,13.98,0C13.98,0,13.97,0,13.97,0Z" /></g></g><g transform="matrix(2,0,0,2,869.44,521.92)" id="i35"><g id="i35"><path fill="#ffffff" d="M9.17,7.8C9.17,7.8,7.14,2.91,7.14,2.91C7.14,2.91,5.11,7.8,5.11,7.8C5.11,7.8,9.16,7.8,9.16,7.8C9.16,7.8,9.17,7.8,9.17,7.8ZM10.1,10.05C10.1,10.05,4.16,10.05,4.16,10.05C4.16,10.05,3.03,12.79,3.03,12.79C3.03,12.79,0,12.79,0,12.79C0,12.79,5.7,0,5.7,0C5.7,0,8.62,0,8.62,0C8.62,0,14.34,12.79,14.34,12.79C14.34,12.79,11.23,12.79,11.23,12.79C11.23,12.79,10.1,10.05,10.1,10.05Z" /></g></g></g><clipPath id="i38"><path d="M925,495C925,495,770,492,770,492C770,492,772,579,772,579C772,579,923,582,923,582C923,582,925,495,925,495Z" /></clipPath></defs><g transform="matrix(2,0,0,2,724,722)" opacity="0.45" id="i39"><g id="i39"><ellipse ry="82.5" rx="82.5" cy="0" cx="0" fill="#ffe0d6" /></g></g><g transform="matrix(2,0,0,2,360,394)" opacity="0.45" id="i40"><g id="i40"><ellipse ry="140.5" rx="140.5" cy="0" cx="0" fill="#ffe0d6" /></g></g><g id="i41"><g transform="translate(832.35,419.329)"><g transform="rotate(0)"><animateTransform repeatCount="indefinite" type="rotate" attributeName="transform" dur="5.017s" begin="0s" calcMode="spline" values="0; 0; -360" keyTimes="0; 0.813953; 1" keySplines="0 0 1 1; 0 0 1 1" fill="freeze" /><g transform="scale(2,2) translate(-36.288,-36.287)"><g id="i42"><path stroke-width="1" stroke="#431a00" d="M46.453,47.413C40.323,53.023,30.773,52.603,25.163,46.473C19.553,40.343,19.973,30.793,26.103,25.183C32.233,19.573,41.783,19.993,47.393,26.123C53.003,32.253,52.583,41.803,46.453,47.413ZM56.523,9.543C56.523,9.543,52.333,13.383,52.333,13.383C52.193,13.513,52.073,13.653,51.963,13.793C49.303,11.933,46.373,10.603,43.323,9.793C43.363,9.613,43.393,9.423,43.403,9.233C43.403,9.233,43.623,3.553,43.623,3.553C43.693,1.783,42.313,0.293,40.543,0.223C40.543,0.223,34.863,0.003,34.863,0.003C33.093,-0.067,31.603,1.313,31.533,3.083C31.533,3.083,31.313,8.763,31.313,8.763C31.313,8.953,31.313,9.143,31.343,9.323C28.323,9.873,25.383,10.933,22.643,12.503C22.543,12.353,22.433,12.203,22.303,12.063C22.303,12.063,18.463,7.873,18.463,7.873C17.263,6.563,15.233,6.483,13.933,7.673C13.933,7.673,9.743,11.513,9.743,11.513C8.433,12.713,8.353,14.743,9.543,16.043C9.543,16.043,13.383,20.233,13.383,20.233C13.513,20.373,13.653,20.493,13.793,20.603C11.933,23.263,10.603,26.193,9.793,29.243C9.613,29.203,9.423,29.173,9.233,29.163C9.233,29.163,3.553,28.943,3.553,28.943C2.703,28.913,1.883,29.203,1.263,29.783C1.263,29.783,1.263,29.783,1.253,29.793C0.623,30.373,0.263,31.163,0.223,32.023C0.223,32.023,0.003,37.703,0.003,37.703C0.003,37.703,0.003,37.703,0.003,37.703C-0.067,39.473,1.313,40.963,3.083,41.033C3.083,41.033,8.763,41.253,8.763,41.253C8.953,41.253,9.143,41.253,9.323,41.223C9.873,44.243,10.933,47.193,12.503,49.933C12.353,50.033,12.203,50.143,12.063,50.273C12.063,50.273,7.873,54.113,7.873,54.113C6.563,55.313,6.483,57.343,7.673,58.643C7.673,58.643,11.513,62.833,11.513,62.833C12.713,64.143,14.743,64.223,16.043,63.033C16.043,63.033,20.233,59.193,20.233,59.193C20.373,59.063,20.493,58.923,20.603,58.783C23.263,60.643,26.193,61.973,29.243,62.783C29.203,62.963,29.173,63.152,29.163,63.342C29.163,63.342,28.943,69.023,28.943,69.023C28.913,69.883,29.213,70.703,29.793,71.323C30.373,71.953,31.163,72.313,32.023,72.353C32.023,72.353,37.703,72.573,37.703,72.573C37.703,72.573,37.703,72.573,37.703,72.573C38.583,72.603,39.393,72.283,39.993,71.733C40.603,71.173,41.003,70.383,41.033,69.493C41.033,69.493,41.253,63.813,41.253,63.813C41.253,63.623,41.253,63.433,41.223,63.253C44.243,62.703,47.193,61.643,49.933,60.073C50.033,60.223,50.143,60.373,50.273,60.513C50.273,60.513,54.113,64.703,54.113,64.703C55.313,66.013,57.343,66.093,58.643,64.903C58.643,64.903,62.833,61.063,62.833,61.063C64.143,59.863,64.223,57.833,63.033,56.533C63.033,56.533,59.193,52.343,59.193,52.343C59.063,52.203,58.923,52.083,58.783,51.973C60.643,49.313,61.973,46.383,62.783,43.333C62.963,43.373,63.153,43.403,63.343,43.413C63.343,43.413,69.023,43.633,69.023,43.633C69.903,43.663,70.713,43.343,71.313,42.793C71.923,42.233,72.323,41.443,72.353,40.553C72.353,40.553,72.573,34.873,72.573,34.873C72.643,33.103,71.263,31.613,69.493,31.543C69.493,31.543,63.813,31.323,63.813,31.323C63.623,31.323,63.433,31.323,63.253,31.353C62.703,28.333,61.643,25.393,60.073,22.653C60.223,22.553,60.373,22.443,60.513,22.313C60.513,22.313,64.703,18.473,64.703,18.473C66.013,17.273,66.093,15.243,64.903,13.943C64.903,13.943,61.063,9.753,61.063,9.753C59.863,8.443,57.833,8.363,56.533,9.553C56.533,9.553,57.823,8.353,56.523,9.543Z" /></g></g></g></g></g><g id="i43"><g transform="translate(189.42,668.47)"><g transform="rotate(0)"><animateTransform repeatCount="indefinite" type="rotate" attributeName="transform" dur="5.017s" begin="0s" calcMode="spline" values="0; 0; 360" keyTimes="0; 0.813953; 1" keySplines="0 0 1 1; 0 0 1 1" fill="freeze" /><g transform="scale(2,2) translate(-54.54,-54.535)"><g id="i44"><path stroke-width="1" stroke="#431a00" d="M70.32,70.81C61.34,79.51,46.95,79.29,38.25,70.31C29.55,61.33,29.77,46.94,38.75,38.24C47.73,29.54,62.11,29.76,70.82,38.74C79.52,47.72,79.3,62.1,70.32,70.81ZM83.85,13.42C83.85,13.42,77.71,19.38,77.71,19.38C77.51,19.58,77.33,19.79,77.17,20.02C73.08,17.34,68.62,15.46,64,14.38C64.05,14.1,64.09,13.82,64.09,13.53C64.09,13.53,64.18,4.97,64.18,4.97C64.21,2.31,62.07,0.12,59.4,0.09C59.4,0.09,50.84,0,50.84,0C48.18,-0.03,45.99,2.11,45.96,4.78C45.96,4.78,45.87,13.34,45.87,13.34C45.87,13.63,45.9,13.91,45.94,14.19C41.42,15.14,37.04,16.86,32.98,19.34C32.83,19.11,32.65,18.89,32.46,18.69C32.46,18.69,26.5,12.55,26.5,12.55C24.65,10.64,21.58,10.59,19.67,12.44C19.67,12.44,13.53,18.4,13.53,18.4C11.62,20.25,11.57,23.32,13.42,25.23C13.42,25.23,19.38,31.37,19.38,31.37C19.58,31.57,19.79,31.75,20.02,31.91C17.34,36,15.46,40.46,14.38,45.08C14.1,45.03,13.82,44.99,13.53,44.99C13.53,44.99,4.97,44.9,4.97,44.9C3.69,44.89,2.48,45.37,1.56,46.26C1.56,46.26,1.55,46.27,1.54,46.28C0.62,47.18,0.1,48.39,0.09,49.68C0.09,49.68,0,58.24,0,58.24C0,58.24,0,58.24,0,58.24C-0.03,60.9,2.11,63.09,4.78,63.12C4.78,63.12,13.34,63.21,13.34,63.21C13.63,63.21,13.91,63.18,14.19,63.13C15.14,67.65,16.86,72.03,19.34,76.09C19.11,76.24,18.89,76.42,18.69,76.61C18.69,76.61,12.55,82.57,12.55,82.57C10.64,84.42,10.59,87.49,12.44,89.4C12.44,89.4,18.4,95.54,18.4,95.54C20.25,97.45,23.32,97.5,25.23,95.65C25.23,95.65,31.37,89.69,31.37,89.69C31.57,89.49,31.75,89.28,31.91,89.05C36,91.73,40.46,93.61,45.08,94.69C45.03,94.97,44.99,95.25,44.99,95.54C44.99,95.54,44.9,104.1,44.9,104.1C44.89,105.39,45.37,106.61,46.28,107.53C47.18,108.45,48.39,108.97,49.68,108.98C49.68,108.98,58.24,109.07,58.24,109.07C58.24,109.07,58.24,109.07,58.24,109.07C59.56,109.08,60.77,108.56,61.65,107.71C62.54,106.84,63.1,105.64,63.12,104.3C63.12,104.3,63.21,95.74,63.21,95.74C63.21,95.45,63.18,95.17,63.13,94.89C67.65,93.94,72.03,92.22,76.09,89.74C76.24,89.97,76.42,90.19,76.62,90.39C76.62,90.39,82.58,96.53,82.58,96.53C84.43,98.44,87.5,98.49,89.41,96.64C89.41,96.64,95.55,90.68,95.55,90.68C97.46,88.83,97.51,85.76,95.66,83.85C95.66,83.85,89.7,77.71,89.7,77.71C89.5,77.51,89.29,77.33,89.06,77.16C91.74,73.07,93.62,68.61,94.7,63.99C94.98,64.04,95.26,64.08,95.55,64.08C95.55,64.08,104.11,64.17,104.11,64.17C105.43,64.18,106.64,63.66,107.52,62.81C108.41,61.94,108.97,60.74,108.99,59.4C108.99,59.4,109.08,50.84,109.08,50.84C109.11,48.18,106.97,45.99,104.3,45.96C104.3,45.96,95.74,45.87,95.74,45.87C95.45,45.87,95.17,45.9,94.89,45.94C93.94,41.42,92.22,37.04,89.74,32.98C89.97,32.83,90.19,32.65,90.39,32.46C90.39,32.46,96.53,26.5,96.53,26.5C98.44,24.65,98.49,21.58,96.64,19.67C96.64,19.67,90.68,13.53,90.68,13.53C88.83,11.62,85.76,11.57,83.85,13.42Z" /></g></g></g></g></g><g transform="matrix(2,0,0,2,481.99,770.61)" id="i45"><g id="i45"><rect height="44.09" width="91.97" y="-22.045" x="-45.985" fill="#af1400" /></g></g><g transform="matrix(2,0,0,2,176.44,286.82)" id="i46"><g id="i46"><path fill="#d92600" d="M305.56,11.69C305.56,11.69,305.56,212.53,305.56,212.53C305.56,218.98,300.33,224.21,293.87,224.21C293.87,224.21,11.69,224.21,11.69,224.21C5.24,224.21,0,218.98,0,212.53C0,212.53,0,11.69,0,11.69C0,5.24,5.24,0,11.69,0C11.69,0,293.87,0,293.87,0C300.33,0,305.56,5.24,305.56,11.69Z" /></g></g><g transform="matrix(2,0,0,2,469,695)" opacity="0.5" id="i47"><g id="i47"><path fill="#ffffff" d="M12,6C12,9.31,9.31,12,6,12C2.69,12,0,9.31,0,6C0,2.69,2.69,0,6,0C9.31,0,12,2.69,12,6Z" /></g></g><g transform="matrix(2,0,0,2,183.78,294.62)" id="i48"><g id="i48"><path fill="#ffe0d6" d="M298.22,192.96C298.22,192.96,298.22,10.04,298.22,10.04C298.22,4.5,293.88,0,288.53,0C288.53,0,9.69,0,9.69,0C4.34,0,0,4.49,0,10.04C0,10.04,0,192.95,0,192.95C0,192.95,298.22,192.95,298.22,192.95C298.22,192.95,298.22,192.96,298.22,192.96Z" /></g></g><g transform="matrix(2,0,0,2,353.82,805.18)" id="i49"><g id="i49"><path fill="#d92600" d="M9.2,0C9.2,0,118.97,0,118.97,0C124.04,0,128.16,4.12,128.16,9.19C128.16,9.19,128.16,9.5,128.16,9.5C128.16,9.5,0,9.5,0,9.5C0,9.5,0,9.19,0,9.19C0,4.12,4.12,0,9.19,0C9.19,0,4.13,0,9.2,0Z" /></g></g><g id="i50"><g transform="translate(729.03,416.706)"><animateTransform repeatCount="indefinite" type="translate" attributeName="transform" dur="5.017s" begin="0s" calcMode="spline" values="729.03 406.65; 729.03 439.65; 729.03 406.65; 729.03 439.65; 729.03 406.65" keyTimes="0; 0.498339; 0.996678; 1; 1" keySplines="0.333 0 0.667 1; 0.333 0 0.667 1; 0.333 0 0.667 1; 0.333 0 0.667 1" fill="freeze" /><g transform="rotate(0.617)"><animateTransform repeatCount="indefinite" type="rotate" attributeName="transform" dur="5.017s" begin="0s" calcMode="spline" values="-1; -1; 1; -1; 1; -1" keyTimes="0; 0.17608; 0.674419; 1; 1; 1" keySplines="0 0 1 1; 0.333 0 0.667 1; 0.333 0 0.667 1; 0.333 0 0.667 1; 0.333 0 0.667 1" fill="freeze" /><g transform="scale(2,2) translate(-0.5,78)"><g id="i50"><rect ry="7.38" rx="7.38" height="155.67" width="82.57" y="-77.835" x="-41.285" fill="#feb19a" /></g></g></g></g></g><g id="i50"><g transform="translate(729.03,416.706)"><animateTransform repeatCount="indefinite" type="translate" attributeName="transform" dur="5.017s" begin="0s" calcMode="spline" values="729.03 406.65; 729.03 439.65; 729.03 406.65; 729.03 439.65; 729.03 406.65" keyTimes="0; 0.498339; 0.996678; 1; 1" keySplines="0.333 0 0.667 1; 0.333 0 0.667 1; 0.333 0 0.667 1; 0.333 0 0.667 1" fill="freeze" /><g transform="rotate(0.617)"><animateTransform repeatCount="indefinite" type="rotate" attributeName="transform" dur="5.017s" begin="0s" calcMode="spline" values="-1; -1; 1; -1; 1; -1" keyTimes="0; 0.17608; 0.674419; 1; 1; 1" keySplines="0 0 1 1; 0.333 0 0.667 1; 0.333 0 0.667 1; 0.333 0 0.667 1; 0.333 0 0.667 1" fill="freeze" /><g transform="scale(2,2) translate(-0.5,78)"><g transform="matrix(1,0,0,1,-3.495,-70.955)" id="i51"><g id="i51"><rect ry="1.17" rx="1.17" height="2.5" width="39.64" y="-1.25" x="-19.82" fill="#431a00" /></g></g></g></g></g></g><g id="i50"><g transform="translate(729.03,416.706)"><animateTransform repeatCount="indefinite" type="translate" attributeName="transform" dur="5.017s" begin="0s" calcMode="spline" values="729.03 406.65; 729.03 439.65; 729.03 406.65; 729.03 439.65; 729.03 406.65" keyTimes="0; 0.498339; 0.996678; 1; 1" keySplines="0.333 0 0.667 1; 0.333 0 0.667 1; 0.333 0 0.667 1; 0.333 0 0.667 1" fill="freeze" /><g transform="rotate(0.617)"><animateTransform repeatCount="indefinite" type="rotate" attributeName="transform" dur="5.017s" begin="0s" calcMode="spline" values="-1; -1; 1; -1; 1; -1" keyTimes="0; 0.17608; 0.674419; 1; 1; 1" keySplines="0 0 1 1; 0.333 0 0.667 1; 0.333 0 0.667 1; 0.333 0 0.667 1; 0.333 0 0.667 1" fill="freeze" /><g transform="scale(2,2) translate(-0.5,78)"><g transform="matrix(1,0,0,1,20.805,-72.205)" id="i52"><g id="i52"><path fill="#431a00" d="M2.5,1.25C2.5,1.94,1.94,2.5,1.25,2.5C0.56,2.5,0,1.94,0,1.25C0,0.56,0.56,0,1.25,0C1.94,0,2.5,0.56,2.5,1.25Z" /></g></g></g></g></g></g><g id="i50"><g transform="translate(729.03,416.706)"><animateTransform repeatCount="indefinite" type="translate" attributeName="transform" dur="5.017s" begin="0s" calcMode="spline" values="729.03 406.65; 729.03 439.65; 729.03 406.65; 729.03 439.65; 729.03 406.65" keyTimes="0; 0.498339; 0.996678; 1; 1" keySplines="0.333 0 0.667 1; 0.333 0 0.667 1; 0.333 0 0.667 1; 0.333 0 0.667 1" fill="freeze" /><g transform="rotate(0.617)"><animateTransform repeatCount="indefinite" type="rotate" attributeName="transform" dur="5.017s" begin="0s" calcMode="spline" values="-1; -1; 1; -1; 1; -1" keyTimes="0; 0.17608; 0.674419; 1; 1; 1" keySplines="0 0 1 1; 0.333 0 0.667 1; 0.333 0 0.667 1; 0.333 0 0.667 1; 0.333 0 0.667 1" fill="freeze" /><g transform="scale(2,2) translate(-0.5,78)"><g transform="matrix(1,0,0,1,-0.01,-41.12)" id="i53"><g id="i53"><rect height="45.15" width="73.47" y="-22.575" x="-36.735" fill="#ffffff" /></g></g></g></g></g></g><g id="i50"><g transform="translate(729.03,416.706)"><animateTransform repeatCount="indefinite" type="translate" attributeName="transform" dur="5.017s" begin="0s" calcMode="spline" values="729.03 406.65; 729.03 439.65; 729.03 406.65; 729.03 439.65; 729.03 406.65" keyTimes="0; 0.498339; 0.996678; 1; 1" keySplines="0.333 0 0.667 1; 0.333 0 0.667 1; 0.333 0 0.667 1; 0.333 0 0.667 1" fill="freeze" /><g transform="rotate(0.617)"><animateTransform repeatCount="indefinite" type="rotate" attributeName="transform" dur="5.017s" begin="0s" calcMode="spline" values="-1; -1; 1; -1; 1; -1" keyTimes="0; 0.17608; 0.674419; 1; 1; 1" keySplines="0 0 1 1; 0.333 0 0.667 1; 0.333 0 0.667 1; 0.333 0 0.667 1; 0.333 0 0.667 1" fill="freeze" /><g transform="scale(2,2) translate(-0.5,78)"><g transform="matrix(1,0,0,1,-28.695,-55.055)" id="i54"><g id="i54"><path fill="#ff3c00" d="M42.63,10.23C42.63,10.23,37.24,16.67,37.24,16.67C37.24,16.67,23.3,0,23.3,0C23.3,0,0,27.88,0,27.88C0,27.88,27.87,27.88,27.87,27.88C27.87,27.88,46.61,27.88,46.61,27.88C46.61,27.88,57.38,27.88,57.38,27.88C57.38,27.88,42.63,10.23,42.63,10.23Z" /></g></g></g></g></g></g><g id="i50"><g transform="translate(729.03,416.706)"><animateTransform repeatCount="indefinite" type="translate" attributeName="transform" dur="5.017s" begin="0s" calcMode="spline" values="729.03 406.65; 729.03 439.65; 729.03 406.65; 729.03 439.65; 729.03 406.65" keyTimes="0; 0.498339; 0.996678; 1; 1" keySplines="0.333 0 0.667 1; 0.333 0 0.667 1; 0.333 0 0.667 1; 0.333 0 0.667 1" fill="freeze" /><g transform="rotate(0.617)"><animateTransform repeatCount="indefinite" type="rotate" attributeName="transform" dur="5.017s" begin="0s" calcMode="spline" values="-1; -1; 1; -1; 1; -1" keyTimes="0; 0.17608; 0.674419; 1; 1; 1" keySplines="0 0 1 1; 0.333 0 0.667 1; 0.333 0 0.667 1; 0.333 0 0.667 1; 0.333 0 0.667 1" fill="freeze" /><g transform="scale(2,2) translate(-0.5,78)"><g transform="matrix(1,0,0,1,-19.4,51.43)" id="i55"><g id="i55"><rect height="20.35" width="34.69" y="-10.175" x="-17.345" fill="#ffffff" /></g></g></g></g></g></g><g id="i50"><g transform="translate(729.03,416.706)"><animateTransform repeatCount="indefinite" type="translate" attributeName="transform" dur="5.017s" begin="0s" calcMode="spline" values="729.03 406.65; 729.03 439.65; 729.03 406.65; 729.03 439.65; 729.03 406.65" keyTimes="0; 0.498339; 0.996678; 1; 1" keySplines="0.333 0 0.667 1; 0.333 0 0.667 1; 0.333 0 0.667 1; 0.333 0 0.667 1" fill="freeze" /><g transform="rotate(0.617)"><animateTransform repeatCount="indefinite" type="rotate" attributeName="transform" dur="5.017s" begin="0s" calcMode="spline" values="-1; -1; 1; -1; 1; -1" keyTimes="0; 0.17608; 0.674419; 1; 1; 1" keySplines="0 0 1 1; 0.333 0 0.667 1; 0.333 0 0.667 1; 0.333 0 0.667 1; 0.333 0 0.667 1" fill="freeze" /><g transform="scale(2,2) translate(-0.5,78)"><g transform="matrix(1,0,0,1,-32.945,44.335)" id="i56"><g id="i56"><path fill="#ff3c00" d="M20.13,4.83C20.13,4.83,17.58,7.87,17.58,7.87C17.58,7.87,11,0,11,0C11,0,0,13.16,0,13.16C0,13.16,13.16,13.16,13.16,13.16C13.16,13.16,22.01,13.16,22.01,13.16C22.01,13.16,27.09,13.16,27.09,13.16C27.09,13.16,20.13,4.83,20.13,4.83Z" /></g></g></g></g></g></g><g transform="matrix(2,0,0,2,488.84,586.87)" id="i57"><g id="i57"><rect height="2.07" width="22.78" y="-1.035" x="-11.39" fill="#431a00" /></g></g><g transform="matrix(2,0,0,2,576.06,586.87)" id="i58"><g id="i58"><rect height="2.07" width="52.76" y="-1.035" x="-26.38" fill="#431a00" /></g></g><g transform="matrix(2,0,0,2,520.4,616.18)" id="i59"><g id="i59"><path fill="#431a00" d="M27.17,2.1C18.11,2.1,9.04,2.09,0,2.07C0,2.07,0,0,0,0C18.07,0.04,36.3,0.04,54.2,0C54.2,0,54.2,2.07,54.2,2.07C45.25,2.09,36.22,2.1,27.16,2.1C27.16,2.1,36.23,2.1,27.17,2.1Z" /></g></g><g transform="matrix(2,0,0,2,566.3,602.55)" id="i60"><g id="i60"><rect height="2.07" width="62.5" y="-1.035" x="-31.25" fill="#431a00" /></g></g><g transform="matrix(2,0,0,2,562.91,633.99)" id="i61"><g id="i61"><rect height="2.07" width="65.91" y="-1.035" x="-32.955" fill="#431a00" /></g></g><g transform="matrix(2,0,0,2,553.77,649.69)" id="i62"><g id="i62"><rect height="2.07" width="75.05" y="-1.035" x="-37.525" fill="#431a00" /></g></g><g id="i63"><g transform="translate(220.08,350.51)"><g transform="scale(2,2)"><animateTransform repeatCount="indefinite" type="scale" attributeName="transform" dur="5.017s" begin="0s" calcMode="spline" values="2 2; 2 2; 1.57 2; 0.81 2; 2.66 2; 1.49 2; 2.16 2; 1.3 2; 0.53 2; 2.17 2; 2.65 2; 2 2" keyTimes="0; 0.813953; 0.913621; 1; 1; 1; 1; 1; 1; 1; 1; 1" keySplines="0 0 1 1; 0.333 0 0.667 1; 0.333 0 0.667 1; 0.333 0 0.667 1; 0.333 0 0.667 1; 0.333 0 0.667 1; 0.333 0 0.667 1; 0.333 0 0.667 1; 0.333 0 0.667 1; 0.333 0 0.667 1; 0.333 0 0.667 1" fill="freeze" /><g transform="translate(17.5,0)"><g id="i63"><rect height="2.07" width="35.28" y="-1.035" x="-17.64" fill="#feb19a" /></g></g></g></g></g><g id="i64"><g transform="translate(454.97,351.01)"><g transform="scale(2,2)"><animateTransform repeatCount="indefinite" type="scale" attributeName="transform" dur="5.017s" begin="0s" calcMode="spline" values="2 2; 2 2; 1.64 2; 0.87 2; 2.54 2; 1.56 2; 2.03 2; 1.28 2; 0.77 2; 2.03 2; 2.55 2; 2 2" keyTimes="0; 0.813953; 0.913621; 1; 1; 1; 1; 1; 1; 1; 1; 1" keySplines="0 0 1 1; 0.333 0 0.667 1; 0.333 0 0.667 1; 0.333 0 0.667 1; 0.333 0 0.667 1; 0.333 0 0.667 1; 0.333 0 0.667 1; 0.333 0 0.667 1; 0.333 0 0.667 1; 0.333 0 0.667 1; 0.333 0 0.667 1" fill="freeze" /><g transform="translate(-18.5,-0.25)"><g id="i64"><rect height="2.07" width="36.41" y="-1.035" x="-18.205" fill="#feb19a" /></g></g></g></g></g><g id="i65"><g transform="translate(455.64,366.19)"><g transform="scale(2,2)"><animateTransform repeatCount="indefinite" type="scale" attributeName="transform" dur="5.017s" begin="0s" calcMode="spline" values="2 2; 2 2; 0.81 2; 6.9 2; 5.57 2; 6.76 2; 3.23 2; 0.76 2; 5.18 2; 2.71 2; 4.52 2; 1.86 2" keyTimes="0; 0.813953; 0.913621; 1; 1; 1; 1; 1; 1; 1; 1; 1" keySplines="0 0 1 1; 0.333 0 0.667 1; 0.333 0 0.667 1; 0.333 0 0.667 1; 0.333 0 0.667 1; 0.333 0 0.667 1; 0.333 0 0.667 1; 0.333 0 0.667 1; 0.333 0 0.667 1; 0.333 0 0.667 1; 0.333 0 0.667 1" fill="freeze" /><g transform="translate(-13.25,0)"><g id="i65"><rect height="2.07" width="25.26" y="-1.035" x="-12.63" fill="#ff3c00" /></g></g></g></g></g><g id="i66"><g transform="translate(454.75,397.63)"><g transform="scale(2,2)"><animateTransform repeatCount="indefinite" type="scale" attributeName="transform" dur="5.017s" begin="0s" calcMode="spline" values="2 2; 2 2; 1.33 2; 2.68 2; 2.36 2; 1.64 2; 3.58 2; 2.37 2; 1.64 2; 2.79 2; 1.33 2; 2 2" keyTimes="0; 0.813953; 0.913621; 1; 1; 1; 1; 1; 1; 1; 1; 1" keySplines="0 0 1 1; 0.333 0 0.667 1; 0.333 0 0.667 1; 0.333 0 0.667 1; 0.333 0 0.667 1; 0.333 0 0.667 1; 0.333 0 0.667 1; 0.333 0 0.667 1; 0.333 0 0.667 1; 0.333 0 0.667 1; 0.333 0 0.667 1" fill="freeze" /><g transform="translate(-18,0)"><g id="i66"><rect height="2.07" width="35.65" y="-1.035" x="-17.825" fill="#ff3c00" /></g></g></g></g></g><g id="i67"><g transform="translate(454.77,413.81)"><g transform="scale(2,2)"><animateTransform repeatCount="indefinite" type="scale" attributeName="transform" dur="5.017s" begin="0s" calcMode="spline" values="2 2; 2 2; 1.33 2; 2.68 2; 2.36 2; 1.64 2; 3.58 2; 2.37 2; 1.64 2; 2.79 2; 1.33 2; 2 2" keyTimes="0; 0.813953; 0.913621; 1; 1; 1; 1; 1; 1; 1; 1; 1" keySplines="0 0 1 1; 0.333 0 0.667 1; 0.333 0 0.667 1; 0.333 0 0.667 1; 0.333 0 0.667 1; 0.333 0 0.667 1; 0.333 0 0.667 1; 0.333 0 0.667 1; 0.333 0 0.667 1; 0.333 0 0.667 1; 0.333 0 0.667 1" fill="freeze" /><g transform="translate(-21.5,-0.25)"><g id="i67"><rect height="2.07" width="42.63" y="-1.035" x="-21.315" fill="#ff3c00" /></g></g></g></g></g><g id="i68"><g transform="translate(455.05,431.15)"><g transform="scale(2,2)"><animateTransform repeatCount="indefinite" type="scale" attributeName="transform" dur="5.017s" begin="0s" calcMode="spline" values="2 2; 2 2; 1.48 2; 1 2; 3.07 2; 2.7 2; 3.38 2; 1.88 2; 2.57 2; 1.23 2; 2.81 2; 2 2" keyTimes="0; 0.813953; 0.913621; 1; 1; 1; 1; 1; 1; 1; 1; 1" keySplines="0 0 1 1; 0.333 0 0.667 1; 0.333 0 0.667 1; 0.333 0 0.667 1; 0.333 0 0.667 1; 0.333 0 0.667 1; 0.333 0 0.667 1; 0.333 0 0.667 1; 0.333 0 0.667 1; 0.333 0 0.667 1; 0.333 0 0.667 1" fill="freeze" /><g transform="translate(-27.75,0.25)"><g id="i68"><rect height="2.07" width="54.83" y="-1.035" x="-27.415" fill="#ff3c00" /></g></g></g></g></g><g id="i69"><g transform="translate(337.1,350.51)"><g transform="scale(2,2)"><animateTransform repeatCount="indefinite" type="scale" attributeName="transform" dur="5.017s" begin="0s" calcMode="spline" values="2 2; 2 2; 2.53 2; 4.24 2; 0.86 2; 3.06 2; 1.79 2; 3.39 2; 4.86 2; 1.68 2; 0.79 2; 2 2" keyTimes="0; 0.813953; 0.913621; 1; 1; 1; 1; 1; 1; 1; 1; 1" keySplines="0 0 1 1; 0.333 0 0.667 1; 0.333 0 0.667 1; 0.333 0 0.667 1; 0.333 0 0.667 1; 0.333 0 0.667 1; 0.333 0 0.667 1; 0.333 0 0.667 1; 0.333 0 0.667 1; 0.333 0 0.667 1; 0.333 0 0.667 1" fill="freeze" /><g transform="translate(0,0)"><g id="i69"><rect height="2.07" width="35.28" y="-1.035" x="-17.64" fill="#ff3c00" /></g></g></g></g></g><g id="i70"><g transform="translate(454.75,381.9)"><g transform="scale(2,2)"><animateTransform repeatCount="indefinite" type="scale" attributeName="transform" dur="5.017s" begin="0s" calcMode="spline" values="2 2; 2 2; 2.59 2; 1.97 2; 0.88 2; 0.46 2; 2.48 2; 3.31 2; 1.95 2; 1.21 2; 0.55 2; 2 2" keyTimes="0; 0.813953; 0.913621; 1; 1; 1; 1; 1; 1; 1; 1; 1" keySplines="0 0 1 1; 0.333 0 0.667 1; 0.333 0 0.667 1; 0.333 0 0.667 1; 0.333 0 0.667 1; 0.333 0 0.667 1; 0.333 0 0.667 1; 0.333 0 0.667 1; 0.333 0 0.667 1; 0.333 0 0.667 1; 0.333 0 0.667 1" fill="freeze" /><g transform="translate(-57.315,-1.05)"><g id="i70"><path fill="#ff3c00" d="M28.65,2.1C23.26,2.1,17.85,2.1,7.03,2.08C7.03,2.08,0,2.08,0,2.08C0,2.08,0,0,0,0C0,0,7.03,0,7.03,0C21.45,0.027,35.82,0.027,50.14,0C50.14,0,57.13,0,57.13,0C57.13,0,57.13,2.06,57.13,2.06C57.13,2.06,50.15,2.06,50.15,2.06C39.41,2.08,34.04,2.09,28.65,2.09C28.65,2.09,34.04,2.1,28.65,2.1Z" /></g></g></g></g></g><g id="i71"><g transform="translate(220,381.4)"><g transform="scale(2,2)"><animateTransform repeatCount="indefinite" type="scale" attributeName="transform" dur="5.017s" begin="0s" calcMode="spline" values="2 2; 2 2; 1.36 2; 1.96 2; 3.12 2; 3.54 2; 1.42 2; 0.56 2; 1.95 2; 2.75 2; 3.45 2; 2 2" keyTimes="0; 0.813953; 0.913621; 1; 1; 1; 1; 1; 1; 1; 1; 1" keySplines="0 0 1 1; 0.333 0 0.667 1; 0.333 0 0.667 1; 0.333 0 0.667 1; 0.333 0 0.667 1; 0.333 0 0.667 1; 0.333 0 0.667 1; 0.333 0 0.667 1; 0.333 0 0.667 1; 0.333 0 0.667 1; 0.333 0 0.667 1" fill="freeze" /><g transform="translate(-0.1,-0.8)"><g id="i71"><path fill="#feb19a" d="M27.04,2.1C17.98,2.1,8.95,2.09,0,2.07C0,2.07,0,0,0,0C17.9,0.04,36.14,0.04,54.2,0C54.2,0,54.2,2.07,54.2,2.07C45.17,2.09,36.09,2.1,27.04,2.1Z" /></g></g></g></g></g><g id="i72"><g transform="translate(219.83,366.19)"><g transform="scale(2,2)"><animateTransform repeatCount="indefinite" type="scale" attributeName="transform" dur="5.017s" begin="0s" calcMode="spline" values="2 2; 2 2; 2.29 2; 0.52 2; 0.87 2; 0.55 2; 1.6 2; 2.33 2; 1.03 2; 1.72 2; 1.2 2; 2 2" keyTimes="0; 0.813953; 0.913621; 1; 1; 1; 1; 1; 1; 1; 1; 1" keySplines="0 0 1 1; 0.333 0 0.667 1; 0.333 0 0.667 1; 0.333 0 0.667 1; 0.333 0 0.667 1; 0.333 0 0.667 1; 0.333 0 0.667 1; 0.333 0 0.667 1; 0.333 0 0.667 1; 0.333 0 0.667 1; 0.333 0 0.667 1" fill="freeze" /><g transform="translate(43.5,0)"><g id="i72"><rect height="2.07" width="87.03" y="-1.035" x="-43.515" fill="#feb19a" /></g></g></g></g></g><g id="i73"><g transform="translate(219.93,432.15)"><g transform="scale(2,2)"><animateTransform repeatCount="indefinite" type="scale" attributeName="transform" dur="5.017s" begin="0s" calcMode="spline" values="2 2; 2 2; 2.47 2; 2.92 2; 0.91 2; 1.18 2; 0.62 2; 2.02 2; 1.39 2; 2.68 2; 1.16 2; 2 2" keyTimes="0; 0.813953; 0.913621; 1; 1; 1; 1; 1; 1; 1; 1; 1" keySplines="0 0 1 1; 0.333 0 0.667 1; 0.333 0 0.667 1; 0.333 0 0.667 1; 0.333 0 0.667 1; 0.333 0 0.667 1; 0.333 0 0.667 1; 0.333 0 0.667 1; 0.333 0 0.667 1; 0.333 0 0.667 1; 0.333 0 0.667 1" fill="freeze" /><g transform="translate(28.75,-0.25)"><g id="i73"><rect height="2.07" width="57.63" y="-1.035" x="-28.815" fill="#feb19a" /></g></g></g></g></g><g id="i74"><g transform="translate(219.95,397.13)"><g transform="scale(2,2)"><animateTransform repeatCount="indefinite" type="scale" attributeName="transform" dur="5.017s" begin="0s" calcMode="spline" values="2 2; 2 2; 2.31 2; 1.43 2; 1.67 2; 2.22 2; 0.95 2; 1.66 2; 2.22 2; 1.43 2; 2.31 2; 2 2" keyTimes="0; 0.813953; 0.913621; 1; 1; 1; 1; 1; 1; 1; 1; 1" keySplines="0 0 1 1; 0.333 0 0.667 1; 0.333 0 0.667 1; 0.333 0 0.667 1; 0.333 0 0.667 1; 0.333 0 0.667 1; 0.333 0 0.667 1; 0.333 0 0.667 1; 0.333 0 0.667 1; 0.333 0 0.667 1; 0.333 0 0.667 1" fill="freeze" /><g transform="translate(38.5,0.25)"><g id="i74"><rect height="2.07" width="77.15" y="-1.035" x="-38.575" fill="#feb19a" /></g></g></g></g></g><g id="i75"><g transform="translate(220.22,413.31)"><g transform="scale(2,2)"><animateTransform repeatCount="indefinite" type="scale" attributeName="transform" dur="5.017s" begin="0s" calcMode="spline" values="2 2; 2 2; 2.31 2; 1.43 2; 1.67 2; 2.22 2; 0.95 2; 1.66 2; 2.22 2; 1.43 2; 2.31 2; 2 2" keyTimes="0; 0.813953; 0.913621; 1; 1; 1; 1; 1; 1; 1; 1; 1" keySplines="0 0 1 1; 0.333 0 0.667 1; 0.333 0 0.667 1; 0.333 0 0.667 1; 0.333 0 0.667 1; 0.333 0 0.667 1; 0.333 0 0.667 1; 0.333 0 0.667 1; 0.333 0 0.667 1; 0.333 0 0.667 1; 0.333 0 0.667 1" fill="freeze" /><g transform="translate(34.75,0)"><g id="i75"><rect height="2.07" width="69.92" y="-1.035" x="-34.96" fill="#feb19a" /></g></g></g></g></g><g transform="matrix(2,0,0,2,205.04,350.5)" id="i76"><g id="i76"><ellipse ry="1.43" rx="1.43" cy="0" cx="0" fill="#d92600" /></g></g><g transform="matrix(2,0,0,2,202.16,363.32)" id="i77"><g id="i77"><path fill="#d92600" d="M2.86,1.43C2.86,2.22,2.22,2.86,1.43,2.86C0.64,2.86,0,2.22,0,1.43C0,0.64,0.64,0,1.43,0C2.22,0,2.86,0.64,2.86,1.43Z" /></g></g><g transform="matrix(2,0,0,2,205.04,381.88)" id="i78"><g id="i78"><ellipse ry="1.43" rx="1.43" cy="0" cx="0" fill="#d92600" /></g></g><g transform="matrix(2,0,0,2,202.16,394.7)" id="i79"><g id="i79"><path fill="#d92600" d="M2.86,1.43C2.86,2.22,2.22,2.86,1.43,2.86C0.64,2.86,0,2.22,0,1.43C0,0.64,0.64,0,1.43,0C2.22,0,2.86,0.64,2.86,1.43Z" /></g></g><g transform="matrix(2,0,0,2,205.04,413.3)" id="i80"><g id="i80"><ellipse ry="1.43" rx="1.43" cy="0" cx="0" fill="#d92600" /></g></g><g transform="matrix(2,0,0,2,202.16,428.78)" id="i81"><g id="i81"><path fill="#d92600" d="M2.86,1.43C2.86,2.22,2.22,2.86,1.43,2.86C0.64,2.86,0,2.22,0,1.43C0,0.64,0.64,0,1.43,0C2.22,0,2.86,0.64,2.86,1.43Z" /></g></g><g transform="matrix(2,0,0,2,472.16,347.14)" id="i82"><g id="i82"><path fill="#d92600" d="M0.52,46.93C0.23,46.93,0,46.7,0,46.41C0,46.41,0,0.52,0,0.52C0,0.23,0.23,0,0.52,0C0.81,0,1.04,0.23,1.04,0.52C1.04,0.52,1.04,46.41,1.04,46.41C1.04,46.7,0.81,46.93,0.52,46.93Z" /></g></g><g transform="matrix(2,0,0,2,260.76,571.94)" id="i83"><g id="i83"><path fill="#431a00" d="M7.55,1.06C7.55,1.06,4.37,1.06,4.37,1.06C4.08,1.06,3.84,0.82,3.84,0.53C3.84,0.24,4.08,0,4.37,0C4.37,0,7.55,0,7.55,0C7.84,0,8.08,0.24,8.08,0.53C8.08,0.82,7.84,1.06,7.55,1.06ZM13.9,1.06C13.9,1.06,10.72,1.06,10.72,1.06C10.43,1.06,10.19,0.82,10.19,0.53C10.19,0.24,10.43,0,10.72,0C10.72,0,13.9,0,13.9,0C14.19,0,14.43,0.24,14.43,0.53C14.43,0.82,14.19,1.06,13.9,1.06ZM20.25,1.06C20.25,1.06,17.07,1.06,17.07,1.06C16.78,1.06,16.54,0.82,16.54,0.53C16.54,0.24,16.78,0,17.07,0C17.07,0,20.25,0,20.25,0C20.54,0,20.78,0.24,20.78,0.53C20.78,0.82,20.54,1.06,20.25,1.06ZM0.54,5.18C0.25,5.18,0.01,4.94,0.01,4.65C0.01,4.65,0.01,4.26,0.01,4.26C0.01,3.18,0.41,2.15,1.14,1.36C1.34,1.15,1.67,1.13,1.89,1.33C2.1,1.53,2.12,1.86,1.92,2.08C1.37,2.67,1.07,3.45,1.07,4.26C1.07,4.26,1.07,4.65,1.07,4.65C1.07,4.94,0.83,5.18,0.54,5.18ZM0.54,11.53C0.25,11.53,0.01,11.29,0.01,11C0.01,11,0.01,7.82,0.01,7.82C0.01,7.53,0.25,7.29,0.54,7.29C0.83,7.29,1.07,7.53,1.07,7.82C1.07,7.82,1.07,11,1.07,11C1.07,11.29,0.83,11.53,0.54,11.53ZM0.54,17.88C0.25,17.88,0.01,17.64,0.01,17.35C0.01,17.35,0.01,14.17,0.01,14.17C0.01,13.88,0.25,13.64,0.54,13.64C0.83,13.64,1.07,13.88,1.07,14.17C1.07,14.17,1.07,17.35,1.07,17.35C1.07,17.64,0.83,17.88,0.54,17.88ZM0.54,24.23C0.25,24.23,0.01,23.99,0.01,23.7C0.01,23.7,0.01,20.52,0.01,20.52C0.01,20.23,0.25,19.99,0.54,19.99C0.83,19.99,1.07,20.23,1.07,20.52C1.07,20.52,1.07,23.7,1.07,23.7C1.07,23.99,0.83,24.23,0.54,24.23ZM0.62,30.58C0.38,30.58,0.16,30.41,0.1,30.16C0.03,29.86,0,29.55,0,29.25C0,29.25,0,26.88,0,26.88C0,26.59,0.24,26.35,0.53,26.35C0.82,26.35,1.06,26.59,1.06,26.88C1.06,26.88,1.06,29.25,1.06,29.25C1.06,29.48,1.08,29.71,1.13,29.94C1.19,30.23,1.01,30.51,0.73,30.57C0.69,30.57,0.65,30.58,0.62,30.58ZM5.56,33.52C5.56,33.52,4.27,33.52,4.27,33.52C3.55,33.52,2.83,33.34,2.2,32.99C1.94,32.85,1.85,32.53,1.99,32.27C2.13,32.01,2.46,31.92,2.71,32.06C3.18,32.32,3.72,32.46,4.26,32.46C4.26,32.46,5.55,32.46,5.55,32.46C5.84,32.46,6.08,32.7,6.08,32.99C6.08,33.28,5.84,33.52,5.55,33.52C5.55,33.52,5.85,33.52,5.56,33.52ZM11.91,33.52C11.91,33.52,8.73,33.52,8.73,33.52C8.44,33.52,8.2,33.28,8.2,32.99C8.2,32.7,8.44,32.46,8.73,32.46C8.73,32.46,11.91,32.46,11.91,32.46C12.2,32.46,12.44,32.7,12.44,32.99C12.44,33.28,12.2,33.52,11.91,33.52ZM18.26,33.52C18.26,33.52,15.08,33.52,15.08,33.52C14.79,33.52,14.55,33.28,14.55,32.99C14.55,32.7,14.79,32.46,15.08,32.46C15.08,32.46,18.26,32.46,18.26,32.46C18.55,32.46,18.79,32.7,18.79,32.99C18.79,33.28,18.55,33.52,18.26,33.52Z" /></g></g><g transform="matrix(2,0,0,2,303.31,613.6)" id="i84"><g id="i84"><rect height="2.12" width="17.01" y="-1.06" x="-8.505" fill="#431a00" /></g></g><g transform="matrix(2,0,0,2,356.69,613.6)" id="i85"><g id="i85"><rect height="2.12" width="27.47" y="-1.06" x="-13.735" fill="#431a00" /></g></g><g transform="matrix(2,0,0,2,367.16,649.62)" id="i86"><g id="i86"><rect height="2.12" width="17" y="-1.06" x="-8.5" fill="#431a00" /></g></g><g transform="matrix(2,0,0,2,313.77,649.62)" id="i87"><g id="i87"><rect height="2.12" width="27.47" y="-1.06" x="-13.735" fill="#431a00" /></g></g><g transform="matrix(2,0,0,2,316.21,625.86)" id="i88"><g id="i88"><rect height="2.12" width="29.91" y="-1.06" x="-14.955" fill="#431a00" /></g></g><g transform="matrix(2,0,0,2,369.59,625.86)" id="i89"><g id="i89"><rect height="2.12" width="14.57" y="-1.06" x="-7.285" fill="#431a00" /></g></g><g transform="matrix(2,0,0,2,310.91,637.92)" id="i90"><g id="i90"><rect height="2.12" width="24.61" y="-1.06" x="-12.305" fill="#431a00" /></g></g><g transform="matrix(2,0,0,2,367.46,637.92)" id="i91"><g id="i91"><rect height="2.12" width="16.7" y="-1.06" x="-8.35" fill="#431a00" /></g></g><g id="i92"><g transform="translate(295.7,593.88)"><g transform="scale(2,2)"><animateTransform repeatCount="indefinite" type="scale" attributeName="transform" dur="5.017s" begin="0s" calcMode="spline" values="2 2; 2 2; 2 2.98; 2 1.41; 2 1.92; 2 3.01; 2 4.64; 2 3.62; 2 4.21; 2 1.32; 2 3.12; 2 2" keyTimes="0; 0.813953; 0.913621; 1; 1; 1; 1; 1; 1; 1; 1; 1" keySplines="0 0 1 1; 0.333 0 0.667 1; 0.333 0 0.667 1; 0.333 0 0.667 1; 0.333 0 0.667 1; 0.333 0 0.667 1; 0.333 0 0.667 1; 0.333 0 0.667 1; 0.333 0 0.667 1; 0.333 0 0.667 1; 0.333 0 0.667 1" fill="freeze" /><g transform="translate(-0.25,-8.5)"><g id="i92"><rect height="16.58" width="8.9" y="-8.29" x="-4.45" fill="#ff3c00" /></g></g></g></g></g><g id="i93"><g transform="translate(323.64,593.09)"><g transform="scale(2,2)"><animateTransform repeatCount="indefinite" type="scale" attributeName="transform" dur="5.017s" begin="0s" calcMode="spline" values="2 2; 2 2; 2 0.79; 2 2.84; 2 4.01; 2 1.61; 2 2.56; 2 0.99; 2 4.42; 2 2.59; 2 1.17; 2 2" keyTimes="0; 0.813953; 0.913621; 1; 1; 1; 1; 1; 1; 1; 1; 1" keySplines="0 0 1 1; 0.333 0 0.667 1; 0.333 0 0.667 1; 0.333 0 0.667 1; 0.333 0 0.667 1; 0.333 0 0.667 1; 0.333 0 0.667 1; 0.333 0 0.667 1; 0.333 0 0.667 1; 0.333 0 0.667 1; 0.333 0 0.667 1" fill="freeze" /><g transform="translate(-0.25,-11.25)"><g id="i93"><rect height="22.87" width="8.9" y="-11.435" x="-4.45" fill="#d92600" /></g></g></g></g></g><g id="i94"><g transform="translate(349.66,593.55)"><g transform="scale(2,2)"><animateTransform repeatCount="indefinite" type="scale" attributeName="transform" dur="5.017s" begin="0s" calcMode="spline" values="2 2; 2 2; 2 2.98; 2 1.41; 2 1.92; 2 2.58; 2 2.91; 2 2.09; 2 1.14; 2 1.32; 2 3.12; 2 2" keyTimes="0; 0.813953; 0.913621; 1; 1; 1; 1; 1; 1; 1; 1; 1" keySplines="0 0 1 1; 0.333 0 0.667 1; 0.333 0 0.667 1; 0.333 0 0.667 1; 0.333 0 0.667 1; 0.333 0 0.667 1; 0.333 0 0.667 1; 0.333 0 0.667 1; 0.333 0 0.667 1; 0.333 0 0.667 1; 0.333 0 0.667 1" fill="freeze" /><g transform="translate(0.25,-18)"><g id="i94"><rect height="35.91" width="8.9" y="-17.955" x="-4.45" fill="#d06d2f" /></g></g></g></g></g><g transform="matrix(2,0,0,2,343.44,637.92)" id="i95"><g id="i95"><rect height="2.12" width="3.2" y="-1.06" x="-1.6" fill="#431a00" /></g></g><g id="i96"><g transform="translate(560.08,425.45)"><g transform="scale(2,0)"><animateTransform repeatCount="indefinite" type="scale" attributeName="transform" dur="5.017s" begin="0s" calcMode="spline" values="2 0; 2 0; 2 2.1; 2 2; 2 2; 2 2.1; 2 0" keyTimes="0; 0.863787; 0.930233; 0.996678; 1; 1; 1" keySplines="0 0 1 1; 0.333 0 0.667 1; 0.333 0 0.667 1; 0.167 0 0.667 1; 0.333 0 0.667 1; 0.333 0 0.667 1" fill="freeze" /><g transform="translate(0.25,29)"><g id="i96"><path stroke-width="1" stroke="#d06d2f" fill="#feb19a" d="M33.43,-29.425C33.43,-29.425,33.32,37.175,33.32,37.175C33.32,37.175,-33.32,37.175,-33.32,37.175C-33.32,37.175,-33.21,-29.425,-33.21,-29.425C-33.21,-29.425,33.43,-29.425,33.43,-29.425Z" /></g></g></g></g></g><g id="i97"><g transform="translate(560.57,416.93)"><g transform="scale(0,2)"><animateTransform repeatCount="indefinite" type="scale" attributeName="transform" dur="5.017s" begin="0s" calcMode="spline" values="0 2; 0 2; 2.2 2; 2 2; 2 2; 2.2 2; 0 2" keyTimes="0; 0.813953; 0.880398; 0.946844; 1; 1; 1" keySplines="0 0 1 1; 0.333 0 0.667 1; 0.333 0 0.667 1; 0.167 0 0.667 1; 0.333 0 0.667 1; 0.333 0 0.667 1" fill="freeze" /><g transform="translate(0,0)"><g id="i97"><rect height="8.91" width="67.67" y="-4.455" x="-33.835" fill="#d06d2f" /></g></g></g></g></g><g id="i98"><g transform="translate(551.17,437.09)"><g transform="scale(0,2)"><animateTransform repeatCount="indefinite" type="scale" attributeName="transform" dur="5.017s" begin="0s" calcMode="spline" values="0 2; 0 2; 2.2 2; 2 2; 2 2; 2.2 2; 0 2" keyTimes="0; 0.877076; 0.943522; 1; 1; 1; 1" keySplines="0 0 1 1; 0.333 0 0.667 1; 0.333 0 0.667 1; 0.167 0 0.667 1; 0.333 0 0.667 1; 0.333 0 0.667 1" fill="freeze" /><g transform="translate(0,0)"><g id="i98"><rect height="1.55" width="46.47" y="-0.775" x="-23.235" fill="#ffffff" /></g></g></g></g></g><g id="i99"><g transform="translate(551.17,448.33)"><g transform="scale(0,2)"><animateTransform repeatCount="indefinite" type="scale" attributeName="transform" dur="5.017s" begin="0s" calcMode="spline" values="0 2; 0 2; 2.2 2; 2 2; 2 2; 2.2 2; 0 2" keyTimes="0; 0.887043; 0.953488; 1; 1; 1; 1" keySplines="0 0 1 1; 0.333 0 0.667 1; 0.333 0 0.667 1; 0.167 0 0.667 1; 0.333 0 0.667 1; 0.333 0 0.667 1" fill="freeze" /><g transform="translate(0,0)"><g id="i99"><rect height="1.55" width="46.47" y="-0.775" x="-23.235" fill="#ffffff" /></g></g></g></g></g><g id="i100"><g transform="translate(551.15,459.62)"><g transform="scale(0,2)"><animateTransform repeatCount="indefinite" type="scale" attributeName="transform" dur="5.017s" begin="0s" calcMode="spline" values="0 2; 0 2; 2.2 2; 2 2; 2 2; 2.2 2; 0 2" keyTimes="0; 0.89701; 0.963455; 1; 1; 1; 1" keySplines="0 0 1 1; 0.333 0 0.667 1; 0.333 0 0.667 1; 0.167 0 0.667 1; 0.333 0 0.667 1; 0.333 0 0.667 1" fill="freeze" /><g transform="translate(-23.235,-0.79)"><g id="i100"><path fill="#ffffff" d="M23.19,1.58C15.21,1.58,7.25,1.58,0,1.55C0,1.55,0,0,0,0C14.48,0.04,31.85,0.04,46.47,0C46.47,0,46.47,1.55,46.47,1.55C39.17,1.57,31.17,1.58,23.19,1.58Z" /></g></g></g></g></g><g id="i101"><g transform="translate(538.57,470.91)"><g transform="scale(0,2)"><animateTransform repeatCount="indefinite" type="scale" attributeName="transform" dur="5.017s" begin="0s" calcMode="spline" values="0 2; 0 2; 2.2 2; 2 2; 2 2; 2.2 2; 0 2" keyTimes="0; 0.913621; 0.980066; 1; 1; 1; 1" keySplines="0 0 1 1; 0.333 0 0.667 1; 0.333 0 0.667 1; 0.167 0 0.667 1; 0.333 0 0.667 1; 0.333 0 0.667 1" fill="freeze" /><g transform="translate(0,0)"><g id="i101"><rect height="1.55" width="33.87" y="-0.775" x="-16.935" fill="#ffffff" /></g></g></g></g></g><g id="i102"><g transform="translate(538.57,512.85)"><g transform="scale(0,2)"><animateTransform repeatCount="indefinite" type="scale" attributeName="transform" dur="5.017s" begin="0s" calcMode="spline" values="0 2; 0 2; 2.2 2; 2 2; 2 2; 2.2 2; 0 2" keyTimes="0; 0.92691; 0.993355; 1; 1; 1; 1" keySplines="0 0 1 1; 0.333 0 0.667 1; 0.333 0 0.667 1; 0.167 0 0.667 1; 0.333 0 0.667 1; 0.333 0 0.667 1" fill="freeze" /><g transform="translate(0,0)"><g id="i102"><rect height="1.55" width="33.87" y="-0.775" x="-16.935" fill="#ffffff" /></g></g></g></g></g><g id="i103"><g transform="translate(551.17,524.148)"><g transform="scale(0,2)"><animateTransform repeatCount="indefinite" type="scale" attributeName="transform" dur="5.017s" begin="0s" calcMode="spline" values="0 2; 0 2; 2.2 2; 2 2; 2 2; 2.2 2; 0 2" keyTimes="0; 0.940199; 1; 1; 1; 1; 1" keySplines="0 0 1 1; 0.333 0 0.667 1; 0.333 0 0.667 1; 0.167 0 0.667 1; 0.333 0 0.667 1; 0.333 0 0.667 1" fill="freeze" /><g transform="translate(-23.235,-0.786)"><g id="i103"><path fill="#ffffff" d="M46.46,1.572C31.85,1.542,14.48,1.542,0,1.572C0,1.572,0,0.022,0,0.022C14.48,-0.008,31.85,-0.008,46.47,0.022C46.47,0.022,46.47,1.572,46.47,1.572C46.47,1.572,46.46,1.572,46.46,1.572Z" /></g></g></g></g></g><g id="i104"><g transform="translate(551.17,535.41)"><g transform="scale(0,2)"><animateTransform repeatCount="indefinite" type="scale" attributeName="transform" dur="5.017s" begin="0s" calcMode="spline" values="0 2; 0 2; 2.2 2; 2 2; 2 2; 2.2 2; 0 2" keyTimes="0; 0.950166; 1; 1; 1; 1; 1" keySplines="0 0 1 1; 0.333 0 0.667 1; 0.333 0 0.667 1; 0.167 0 0.667 1; 0.333 0 0.667 1; 0.333 0 0.667 1" fill="freeze" /><g transform="translate(0,0)"><g id="i104"><rect height="1.55" width="46.47" y="-0.775" x="-23.235" fill="#ffffff" /></g></g></g></g></g><g id="i105"><g transform="translate(551.17,546.67)"><g transform="scale(0,2)"><animateTransform repeatCount="indefinite" type="scale" attributeName="transform" dur="5.017s" begin="0s" calcMode="spline" values="0 2; 0 2; 2.2 2; 2 2; 2 2; 2.2 2; 0 2" keyTimes="0; 0.963455; 1; 1; 1; 1; 1" keySplines="0 0 1 1; 0.333 0 0.667 1; 0.333 0 0.667 1; 0.167 0 0.667 1; 0.333 0 0.667 1; 0.333 0 0.667 1" fill="freeze" /><g transform="translate(0,0)"><g id="i105"><rect height="1.55" width="46.47" y="-0.775" x="-23.235" fill="#ffffff" /></g></g></g></g></g><g id="i106"><g transform="translate(584.392,492.638)"><g transform="scale(0,0)"><animateTransform repeatCount="indefinite" type="scale" attributeName="transform" dur="5.017s" begin="0s" calcMode="spline" values="0 0; 0 0; 2.5 2.5; 2 2; 2 2; 2.5 2.5; 0 0" keyTimes="0; 0.923588; 0.990033; 1; 1; 1; 1" keySplines="0 0 1 1; 0.333 0 0.667 1; 0.333 0 0.667 1; 0.167 0 0.833 1; 0.167 0 0.667 1; 0.333 0 0.833 1" fill="freeze" /><g transform="translate(-3.376,-5.371)"><g id="i106"><path fill="#ffffff" d="M5.98,10.742C5.8,10.742,5.61,10.682,5.47,10.552C5.47,10.552,0.26,5.952,0.26,5.952C0.09,5.802,0,5.592,0,5.372C0,5.152,0.09,4.942,0.26,4.792C0.26,4.792,5.47,0.192,5.47,0.192C5.79,-0.088,6.28,-0.058,6.56,0.262C6.84,0.582,6.81,1.072,6.49,1.352C6.49,1.352,1.94,5.372,1.94,5.372C1.94,5.372,6.49,9.392,6.49,9.392C6.81,9.672,6.84,10.162,6.56,10.482C6.41,10.652,6.19,10.742,5.98,10.742Z" /></g></g></g></g></g><g id="i107"><g transform="translate(610.868,492.638)"><g transform="scale(0,0)"><animateTransform repeatCount="indefinite" type="scale" attributeName="transform" dur="5.017s" begin="0s" calcMode="spline" values="0 0; 0 0; 2.5 2.5; 2 2; 2 2; 2.5 2.5; 0 0" keyTimes="0; 0.953488; 1; 1; 1; 1; 1" keySplines="0 0 1 1; 0.333 0 0.667 1; 0.333 0 0.667 1; 0.167 0 0.833 1; 0.167 0 0.667 1; 0.333 0 0.833 1" fill="freeze" /><g transform="translate(-3.376,-5.371)"><g id="i107"><path fill="#ffffff" d="M0.772,10.742C0.562,10.742,0.342,10.652,0.192,10.482C-0.088,10.162,-0.058,9.672,0.262,9.392C0.262,9.392,4.812,5.372,4.812,5.372C4.812,5.372,0.262,1.352,0.262,1.352C-0.058,1.072,-0.088,0.582,0.192,0.262C0.472,-0.058,0.962,-0.088,1.282,0.192C1.282,0.192,6.492,4.792,6.492,4.792C6.662,4.942,6.752,5.152,6.752,5.372C6.752,5.592,6.662,5.802,6.492,5.952C6.492,5.952,1.282,10.552,1.282,10.552C1.132,10.682,0.952,10.742,0.772,10.742Z" /></g></g></g></g></g><g id="i108"><g transform="translate(504.48,416.923)"><g transform="scale(0,0)"><animateTransform repeatCount="indefinite" type="scale" attributeName="transform" dur="5.017s" begin="0s" calcMode="spline" values="0 0; 0 0; 2.5 2.5; 2 2; 2 2; 2.5 2.5; 0 0" keyTimes="0; 0.900332; 0.966778; 1; 1; 1; 1" keySplines="0 0 1 1; 0.333 0 0.667 1; 0.333 0 0.667 1; 0.167 0 0.667 1; 0.333 0 0.667 1; 0.333 0 0.667 1" fill="freeze" /><g transform="translate(-2.557,-2.559)"><g id="i108"><path fill="#ffffff" d="M3.177,2.557C3.177,2.557,4.987,0.747,4.987,0.747C5.157,0.577,5.157,0.298,4.987,0.128C4.817,-0.042,4.537,-0.042,4.367,0.128C4.367,0.128,2.557,1.938,2.557,1.938C2.557,1.938,0.747,0.128,0.747,0.128C0.577,-0.042,0.298,-0.042,0.128,0.128C-0.042,0.298,-0.042,0.577,0.128,0.747C0.128,0.747,1.938,2.557,1.938,2.557C1.938,2.557,0.128,4.367,0.128,4.367C-0.042,4.537,-0.042,4.817,0.128,4.987C0.218,5.077,0.328,5.117,0.438,5.117C0.548,5.117,0.657,5.077,0.747,4.987C0.747,4.987,2.557,3.177,2.557,3.177C2.557,3.177,4.367,4.987,4.367,4.987C4.457,5.077,4.567,5.117,4.677,5.117C4.787,5.117,4.897,5.077,4.987,4.987C5.157,4.817,5.157,4.537,4.987,4.367C4.987,4.367,3.177,2.557,3.177,2.557Z" /></g></g></g></g></g><g id="i109"><g transform="translate(521.2,416.94)"><g transform="scale(0,0)"><animateTransform repeatCount="indefinite" type="scale" attributeName="transform" dur="5.017s" begin="0s" calcMode="spline" values="0 0; 0 0; 2.5 2.5; 2 2; 2 2; 2.5 2.5; 0 0" keyTimes="0; 0.890366; 0.956811; 1; 1; 1; 1" keySplines="0 0 1 1; 0.333 0 0.667 1; 0.333 0 0.667 1; 0.167 0 0.667 1; 0.333 0 0.667 1; 0.333 0 0.667 1" fill="freeze" /><g transform="translate(-2.55,-2.55)"><g id="i109"><path fill="#ffffff" d="M2.55,0.81C1.59,0.81,0.82,1.59,0.82,2.54C0.82,3.49,1.6,4.27,2.55,4.27C3.5,4.27,4.28,3.49,4.28,2.54C4.28,1.59,3.5,0.81,2.55,0.81ZM2.55,5.1C1.14,5.1,0,3.96,0,2.55C0,1.14,1.14,0,2.55,0C3.96,0,5.1,1.14,5.1,2.55C5.1,3.96,3.96,5.1,2.55,5.1Z" /></g></g></g></g></g><g id="i110"><g transform="translate(536.78,421.16)"><g transform="scale(0,0)"><animateTransform repeatCount="indefinite" type="scale" attributeName="transform" dur="5.017s" begin="0s" calcMode="spline" values="0 0; 0 0; 2.5 2.5; 2 2; 2 2; 2.5 2.5; 0 0" keyTimes="0; 0.92691; 0.993355; 1; 1; 1; 1" keySplines="0 0 1 1; 0.333 0 0.667 1; 0.333 0 0.667 1; 0.167 0 0.667 1; 0.333 0 0.667 1; 0.333 0 0.667 1" fill="freeze" /><g transform="translate(-2.52,-0.44)"><g id="i110"><path fill="#ffffff" d="M4.6,0.88C4.6,0.88,0.44,0.88,0.44,0.88C0.2,0.88,0,0.68,0,0.44C0,0.2,0.2,0,0.44,0C0.44,0,4.6,0,4.6,0C4.84,0,5.04,0.2,5.04,0.44C5.04,0.68,4.84,0.88,4.6,0.88Z" /></g></g></g></g></g><g id="i111"><g transform="translate(426.79,533.02)"><g transform="rotate(0)"><animateTransform repeatCount="indefinite" type="rotate" attributeName="transform" dur="5.017s" begin="0s" calcMode="spline" values="0; 0; -360" keyTimes="0; 0.813953; 1" keySplines="0 0 1 1; 0 0 1 1" fill="freeze" /><g transform="scale(2,2) translate(-23.709,-23.714)"><g id="i112"><path fill="#feb19a" d="M33.204,27.594C31.064,32.834,25.064,35.354,19.834,33.214C14.594,31.074,12.074,25.074,14.214,19.844C16.354,14.604,22.354,12.084,27.584,14.224C32.814,16.364,35.344,22.364,33.204,27.594ZM28.384,1.374C28.384,1.374,26.924,4.954,26.924,4.954C26.874,5.074,26.844,5.194,26.814,5.314C24.634,4.944,22.444,4.974,20.334,5.374C20.304,5.254,20.274,5.124,20.214,5.004C20.214,5.004,18.694,1.444,18.694,1.444C18.224,0.334,16.934,-0.186,15.834,0.294C15.834,0.294,12.274,1.814,12.274,1.814C11.164,2.284,10.644,3.574,11.124,4.674C11.124,4.674,12.644,8.234,12.644,8.234C12.694,8.354,12.754,8.464,12.824,8.574C11.124,9.794,9.624,11.294,8.394,13.064C8.284,12.994,8.174,12.934,8.054,12.894C8.054,12.894,4.474,11.434,4.474,11.434C3.364,10.974,2.084,11.514,1.624,12.634C1.624,12.634,0.164,16.214,0.164,16.214C-0.296,17.324,0.244,18.604,1.364,19.064C1.364,19.064,4.944,20.524,4.944,20.524C5.064,20.574,5.184,20.604,5.304,20.634C4.934,22.814,4.964,25.004,5.364,27.114C5.244,27.144,5.114,27.174,4.994,27.234C4.994,27.234,1.434,28.754,1.434,28.754C0.904,28.984,0.484,29.404,0.264,29.934C0.264,29.934,0.264,29.934,0.264,29.934C0.044,30.474,0.054,31.064,0.284,31.604C0.284,31.604,1.804,35.164,1.804,35.164C1.804,35.164,1.804,35.164,1.804,35.164C2.274,36.274,3.564,36.794,4.664,36.314C4.664,36.314,8.224,34.794,8.224,34.794C8.344,34.744,8.454,34.674,8.564,34.604C9.784,36.304,11.284,37.804,13.054,39.034C12.984,39.144,12.924,39.254,12.884,39.374C12.884,39.374,11.424,42.954,11.424,42.954C10.964,44.064,11.504,45.344,12.624,45.804C12.624,45.804,16.204,47.264,16.204,47.264C17.314,47.724,18.594,47.184,19.054,46.064C19.054,46.064,20.514,42.484,20.514,42.484C20.564,42.364,20.594,42.244,20.624,42.124C22.804,42.494,24.994,42.464,27.104,42.064C27.134,42.184,27.164,42.314,27.214,42.434C27.214,42.434,28.734,45.994,28.734,45.994C28.964,46.534,29.384,46.944,29.924,47.164C30.464,47.384,31.054,47.374,31.594,47.144C31.594,47.144,35.154,45.624,35.154,45.624C35.154,45.624,35.154,45.624,35.154,45.624C35.704,45.394,36.104,44.954,36.314,44.444C36.524,43.924,36.544,43.324,36.304,42.764C36.304,42.764,34.784,39.204,34.784,39.204C34.734,39.084,34.664,38.974,34.594,38.864C36.294,37.644,37.794,36.144,39.024,34.374C39.134,34.444,39.244,34.504,39.364,34.544C39.364,34.544,42.944,36.004,42.944,36.004C44.054,36.464,45.334,35.924,45.794,34.804C45.794,34.804,47.254,31.224,47.254,31.224C47.714,30.114,47.174,28.834,46.054,28.374C46.054,28.374,42.474,26.914,42.474,26.914C42.354,26.864,42.234,26.834,42.114,26.804C42.484,24.624,42.454,22.434,42.054,20.324C42.174,20.294,42.304,20.264,42.424,20.214C42.424,20.214,45.984,18.694,45.984,18.694C46.534,18.464,46.944,18.024,47.154,17.514C47.364,16.994,47.384,16.394,47.144,15.834C47.144,15.834,45.624,12.274,45.624,12.274C45.154,11.164,43.864,10.644,42.764,11.124C42.764,11.124,39.204,12.644,39.204,12.644C39.084,12.694,38.974,12.754,38.864,12.824C37.644,11.124,36.144,9.624,34.374,8.394C34.444,8.284,34.504,8.174,34.544,8.054C34.544,8.054,36.004,4.474,36.004,4.474C36.464,3.364,35.924,2.084,34.804,1.624C34.804,1.624,31.224,0.164,31.224,0.164C30.114,-0.296,28.834,0.244,28.374,1.364C28.374,1.364,28.844,0.254,28.384,1.374Z" /></g></g></g></g></g><g id="i113"><g transform="translate(368.7,476.45)"><g transform="rotate(0)"><animateTransform repeatCount="indefinite" type="rotate" attributeName="transform" dur="5.017s" begin="0s" calcMode="spline" values="0; 0; 360" keyTimes="0; 0.813953; 1" keySplines="0 0 1 1; 0 0 1 1" fill="freeze" /><g transform="scale(2,2) translate(-17.27,-17.275)"><g id="i114"><path stroke-width="0.5" stroke="#feb19a" d="M22.39,22.31C19.61,25.13,15.05,25.16,12.23,22.38C9.41,19.6,9.38,15.04,12.16,12.22C14.94,9.4,19.5,9.37,22.32,12.15C25.14,14.93,25.17,19.49,22.39,22.31ZM26.27,4.04C26.27,4.04,24.37,5.97,24.37,5.97C24.31,6.03,24.25,6.1,24.2,6.18C22.89,5.36,21.46,4.8,19.99,4.49C20,4.4,20.01,4.31,20.01,4.22C20.01,4.22,19.98,1.51,19.98,1.51C19.98,0.67,19.28,-0.01,18.43,0C18.43,0,15.72,0.03,15.72,0.03C14.88,0.03,14.2,0.73,14.21,1.58C14.21,1.58,14.24,4.29,14.24,4.29C14.24,4.38,14.25,4.47,14.27,4.56C12.85,4.89,11.47,5.47,10.2,6.28C10.15,6.21,10.09,6.14,10.03,6.08C10.03,6.08,8.1,4.18,8.1,4.18C7.5,3.59,6.53,3.59,5.94,4.19C5.94,4.19,4.04,6.12,4.04,6.12C3.45,6.72,3.45,7.69,4.05,8.28C4.05,8.28,5.98,10.18,5.98,10.18C6.04,10.24,6.11,10.3,6.18,10.35C5.36,11.66,4.8,13.09,4.49,14.56C4.4,14.55,4.31,14.54,4.22,14.54C4.22,14.54,1.51,14.57,1.51,14.57C1.1,14.57,0.72,14.74,0.44,15.02C0.44,15.02,0.44,15.02,0.44,15.02C0.15,15.31,0,15.7,0,16.11C0,16.11,0.03,18.82,0.03,18.82C0.03,18.82,0.03,18.82,0.03,18.82C0.03,19.66,0.73,20.34,1.58,20.33C1.58,20.33,4.29,20.3,4.29,20.3C4.38,20.3,4.47,20.29,4.56,20.27C4.89,21.69,5.47,23.07,6.28,24.34C6.21,24.39,6.14,24.45,6.08,24.51C6.08,24.51,4.18,26.44,4.18,26.44C3.59,27.04,3.59,28.01,4.19,28.6C4.19,28.6,6.12,30.5,6.12,30.5C6.72,31.09,7.69,31.09,8.28,30.49C8.28,30.49,10.18,28.56,10.18,28.56C10.24,28.5,10.3,28.43,10.35,28.36C11.66,29.18,13.09,29.74,14.56,30.05C14.55,30.14,14.53,30.23,14.54,30.32C14.54,30.32,14.57,33.03,14.57,33.03C14.57,33.44,14.74,33.82,15.03,34.11C15.32,34.4,15.71,34.55,16.12,34.55C16.12,34.55,18.83,34.52,18.83,34.52C18.83,34.52,18.83,34.52,18.83,34.52C19.25,34.52,19.63,34.34,19.9,34.06C20.18,33.78,20.35,33.39,20.34,32.97C20.34,32.97,20.31,30.26,20.31,30.26C20.31,30.17,20.3,30.08,20.28,29.99C21.7,29.66,23.08,29.08,24.35,28.27C24.4,28.34,24.46,28.41,24.52,28.47C24.52,28.47,26.45,30.37,26.45,30.37C27.05,30.96,28.02,30.96,28.61,30.36C28.61,30.36,30.51,28.43,30.51,28.43C31.1,27.83,31.1,26.86,30.5,26.27C30.5,26.27,28.57,24.37,28.57,24.37C28.51,24.31,28.44,24.25,28.36,24.2C29.18,22.89,29.74,21.46,30.05,19.99C30.14,20,30.23,20.02,30.32,20.01C30.32,20.01,33.03,19.98,33.03,19.98C33.45,19.98,33.83,19.8,34.1,19.52C34.38,19.24,34.55,18.85,34.54,18.43C34.54,18.43,34.51,15.72,34.51,15.72C34.51,14.88,33.81,14.2,32.96,14.21C32.96,14.21,30.25,14.24,30.25,14.24C30.16,14.24,30.07,14.25,29.98,14.27C29.65,12.85,29.07,11.47,28.26,10.2C28.33,10.15,28.4,10.09,28.46,10.03C28.46,10.03,30.36,8.1,30.36,8.1C30.95,7.5,30.95,6.53,30.35,5.94C30.35,5.94,28.42,4.04,28.42,4.04C27.82,3.45,26.85,3.45,26.26,4.05C26.26,4.05,26.86,3.44,26.27,4.04Z" /></g></g></g></g></g><g id="i115"><g transform="translate(738.79,300.95)"><g transform="rotate(0)"><animateTransform repeatCount="indefinite" type="rotate" attributeName="transform" dur="5.017s" begin="0s" calcMode="spline" values="0; 0; 360" keyTimes="0; 0.813953; 1" keySplines="0 0 1 1; 0 0 1 1" fill="freeze" /><g transform="scale(2,2) translate(-31.469,-31.469)"><g id="i116"><path fill="#431a00" d="M34.215,44.334C27.125,45.854,20.125,41.314,18.605,34.224C17.085,27.134,21.625,20.134,28.715,18.614C35.805,17.094,42.805,21.634,44.325,28.724C45.845,35.814,41.305,42.814,34.215,44.334ZM58.515,20.284C58.515,20.284,53.665,21.324,53.665,21.324C53.505,21.354,53.345,21.414,53.205,21.464C52.015,18.894,50.405,16.594,48.465,14.644C48.575,14.524,48.685,14.394,48.775,14.254C48.775,14.254,51.455,10.074,51.455,10.074C52.285,8.774,51.905,7.034,50.605,6.204C50.605,6.204,46.425,3.524,46.425,3.524C45.125,2.694,43.385,3.074,42.555,4.374C42.555,4.374,39.875,8.554,39.875,8.554C39.785,8.694,39.715,8.844,39.655,8.994C37.145,8.074,34.455,7.574,31.705,7.544C31.705,7.384,31.685,7.224,31.645,7.064C31.645,7.064,30.605,2.214,30.605,2.214C30.285,0.704,28.795,-0.266,27.285,0.064C27.285,0.064,22.435,1.104,22.435,1.104C20.925,1.424,19.955,2.914,20.285,4.424C20.285,4.424,21.325,9.274,21.325,9.274C21.355,9.434,21.415,9.594,21.465,9.734C18.895,10.914,16.595,12.534,14.645,14.474C14.525,14.364,14.395,14.254,14.255,14.164C14.255,14.164,10.075,11.484,10.075,11.484C9.445,11.084,8.705,10.944,7.975,11.104C7.975,11.104,7.975,11.104,7.965,11.104C7.235,11.264,6.604,11.704,6.204,12.324C6.204,12.324,3.525,16.504,3.525,16.504C3.525,16.504,3.525,16.504,3.525,16.504C2.695,17.804,3.075,19.544,4.375,20.374C4.375,20.374,8.555,23.054,8.555,23.054C8.695,23.144,8.845,23.214,8.995,23.274C8.075,25.784,7.564,28.474,7.544,31.234C7.384,31.234,7.224,31.254,7.064,31.294C7.064,31.294,2.214,32.334,2.214,32.334C0.704,32.654,-0.266,34.144,0.064,35.654C0.064,35.654,1.104,40.504,1.104,40.504C1.424,42.014,2.914,42.984,4.424,42.654C4.424,42.654,9.275,41.614,9.275,41.614C9.435,41.584,9.594,41.524,9.734,41.474C10.924,44.044,12.534,46.344,14.474,48.294C14.364,48.414,14.254,48.544,14.164,48.684C14.164,48.684,11.484,52.864,11.484,52.864C11.084,53.494,10.944,54.244,11.104,54.974C11.264,55.704,11.704,56.334,12.324,56.734C12.324,56.734,16.504,59.414,16.504,59.414C16.504,59.414,16.504,59.414,16.504,59.414C17.154,59.824,17.904,59.944,18.604,59.794C19.314,59.644,19.954,59.224,20.374,58.564C20.374,58.564,23.054,54.384,23.054,54.384C23.144,54.244,23.214,54.094,23.274,53.944C25.784,54.864,28.474,55.374,31.234,55.394C31.234,55.554,31.254,55.714,31.294,55.874C31.294,55.874,32.334,60.724,32.334,60.724C32.654,62.234,34.144,63.204,35.654,62.874C35.654,62.874,40.504,61.834,40.504,61.834C42.014,61.514,42.984,60.024,42.654,58.514C42.654,58.514,41.614,53.664,41.614,53.664C41.584,53.504,41.524,53.344,41.474,53.204C44.044,52.014,46.344,50.404,48.294,48.464C48.414,48.574,48.544,48.684,48.684,48.774C48.684,48.774,52.864,51.454,52.864,51.454C53.514,51.864,54.264,51.984,54.964,51.834C55.674,51.684,56.314,51.264,56.734,50.604C56.734,50.604,59.414,46.424,59.414,46.424C60.244,45.124,59.864,43.384,58.564,42.554C58.564,42.554,54.384,39.874,54.384,39.874C54.244,39.784,54.094,39.714,53.944,39.654C54.864,37.144,55.364,34.454,55.394,31.704C55.554,31.704,55.714,31.684,55.874,31.644C55.874,31.644,60.724,30.604,60.724,30.604C62.234,30.284,63.204,28.794,62.874,27.284C62.874,27.284,61.834,22.434,61.834,22.434C61.514,20.924,60.025,19.954,58.515,20.284Z" /></g></g></g></g></g><g id="i117"><g transform="translate(385.51,243.81)"><g transform="rotate(0)"><animateTransform repeatCount="indefinite" type="rotate" attributeName="transform" dur="5.017s" begin="0s" calcMode="spline" values="0; 0; 360" keyTimes="0; 0.813953; 1" keySplines="0 0 1 1; 0 0 1 1" fill="freeze" /><g transform="scale(2,2) translate(-39.44,-39.44)"><g id="i118"><path fill="#431a00" d="M44.495,55.395C35.695,58.175,26.285,53.285,23.495,44.495C20.715,35.695,25.605,26.285,34.405,23.495C43.195,20.715,52.615,25.605,55.405,34.405C58.185,43.195,53.295,52.615,44.505,55.405C44.505,55.405,53.285,52.605,44.495,55.395ZM72.355,21.995C72.355,21.995,66.335,23.895,66.335,23.895C66.135,23.955,65.945,24.045,65.765,24.135C63.955,21.015,61.625,18.305,58.935,16.065C59.065,15.895,59.175,15.725,59.275,15.535C59.275,15.535,62.155,9.915,62.155,9.915C63.055,8.165,62.365,6.015,60.615,5.115C60.615,5.115,54.995,2.235,54.995,2.235C53.245,1.335,51.095,2.025,50.195,3.775C50.195,3.775,47.315,9.395,47.315,9.395C47.215,9.585,47.145,9.775,47.085,9.975C43.795,9.115,40.325,8.805,36.835,9.105C36.805,8.905,36.765,8.705,36.705,8.505C36.705,8.505,34.805,2.485,34.805,2.485C34.215,0.615,32.205,-0.425,30.335,0.165C30.335,0.165,24.315,2.065,24.315,2.065C22.445,2.655,21.405,4.665,21.995,6.535C21.995,6.535,23.895,12.555,23.895,12.555C23.955,12.755,24.045,12.945,24.135,13.125C21.015,14.935,18.305,17.265,16.065,19.955C15.895,19.825,15.725,19.715,15.535,19.615C15.535,19.615,9.915,16.735,9.915,16.735C9.075,16.305,8.115,16.225,7.215,16.505C7.215,16.505,7.205,16.505,7.195,16.505C6.285,16.795,5.555,17.425,5.115,18.265C5.115,18.265,2.235,23.885,2.235,23.885C2.235,23.885,2.235,23.885,2.235,23.885C1.335,25.635,2.025,27.785,3.775,28.685C3.775,28.685,9.395,31.565,9.395,31.565C9.585,31.665,9.785,31.735,9.975,31.795C9.115,35.095,8.805,38.555,9.105,42.045C8.905,42.075,8.705,42.115,8.505,42.175C8.505,42.175,2.485,44.075,2.485,44.075C0.615,44.665,-0.425,46.675,0.165,48.545C0.165,48.545,2.065,54.565,2.065,54.565C2.655,56.435,4.665,57.475,6.535,56.885C6.535,56.885,12.555,54.985,12.555,54.985C12.755,54.925,12.945,54.835,13.125,54.745C14.935,57.865,17.265,60.575,19.955,62.815C19.825,62.975,19.715,63.155,19.615,63.345C19.615,63.345,16.735,68.965,16.735,68.965C16.305,69.815,16.225,70.775,16.515,71.685C16.805,72.595,17.435,73.325,18.275,73.765C18.275,73.765,23.895,76.645,23.895,76.645C23.895,76.645,23.895,76.645,23.895,76.645C24.765,77.095,25.735,77.145,26.595,76.875C27.465,76.595,28.235,75.985,28.695,75.105C28.695,75.105,31.575,69.485,31.575,69.485C31.675,69.295,31.745,69.095,31.805,68.905C35.105,69.765,38.565,70.075,42.055,69.775C42.085,69.975,42.125,70.175,42.185,70.375C42.185,70.375,44.085,76.395,44.085,76.395C44.675,78.265,46.685,79.305,48.555,78.715C48.555,78.715,54.575,76.815,54.575,76.815C56.445,76.225,57.485,74.215,56.895,72.345C56.895,72.345,54.995,66.325,54.995,66.325C54.935,66.125,54.845,65.935,54.755,65.755C57.875,63.945,60.585,61.615,62.825,58.925C62.985,59.055,63.165,59.165,63.355,59.265C63.355,59.265,68.975,62.145,68.975,62.145C69.845,62.595,70.815,62.645,71.675,62.375C72.545,62.095,73.315,61.485,73.765,60.605C73.765,60.605,76.645,54.985,76.645,54.985C77.545,53.235,76.855,51.085,75.105,50.185C75.105,50.185,69.485,47.305,69.485,47.305C69.295,47.205,69.105,47.135,68.905,47.075C69.765,43.785,70.075,40.315,69.775,36.825C69.975,36.795,70.175,36.755,70.375,36.695C70.375,36.695,76.395,34.795,76.395,34.795C78.265,34.205,79.305,32.195,78.715,30.325C78.715,30.325,76.815,24.305,76.815,24.305C76.225,22.435,74.215,21.395,72.345,21.985C72.345,21.985,74.225,21.405,72.355,21.995Z" /></g></g></g></g></g><g id="i119"><animate repeatCount="indefinite" attributeName="opacity" dur="5.017s" begin="0s" fill="freeze" values="1; 1; 0" keyTimes="0; 1; 1" keySplines="0 0 1 1; 0 0 1 1" calcMode="spline" /><g transform="translate(587.962,306.085)"><animateTransform repeatCount="indefinite" type="translate" attributeName="transform" dur="5.017s" begin="0s" calcMode="spline" values="572 342; 572 342; 644 180" keyTimes="0; 0.681063; 1" keySplines="0 0 1 1; 0 0 1 1" fill="freeze" /><g transform="scale(1,1)"><animateTransform repeatCount="indefinite" type="scale" attributeName="transform" dur="5.017s" begin="0s" calcMode="spline" values="0 0; 0 0; 1.1 1.1; 1 1; 1 1" keyTimes="0; 0.681063; 0.747508; 0.813954; 1" keySplines="0 0 1 1; 0.333 0 0.667 1; 0.333 0 0.667 1; 0 0 1 1" fill="freeze" /><g transform="translate(-592,-278)"><g clip-path="url(#i6)" id="i120"><g clip-path="url(#i0)"><g transform="matrix(2,0,0,2,593.24,280.02)"><g><rect ry="9.08" rx="9.08" height="36.2" width="72.4" y="-18.1" x="-36.2" fill="#d06d2f" /></g></g><g transform="matrix(2,0,0,2,554.56,266.34)"><g><path fill="#ffffff" d="M11.9,3.1C11.9,3.1,3.58,6.15,3.58,6.15C3.58,6.15,11.9,9.17,11.9,9.17C11.9,9.17,11.9,12.29,11.9,12.29C11.9,12.29,0,7.77,0,7.77C0,7.77,0,4.52,0,4.52C0,4.52,11.9,0,11.9,0C11.9,0,11.9,3.1,11.9,3.1Z" /></g></g><g transform="matrix(2,0,0,2,579.76,254.04)"><g><path fill="#ffffff" d="M8.25,0C8.25,0,11.72,0,11.72,0C11.72,0,3.47,23.54,3.47,23.54C3.47,23.54,0,23.54,0,23.54C0,23.54,8.25,0,8.25,0Z" /></g></g><g transform="matrix(2,0,0,2,604.1,266.34)"><g><path fill="#ffffff" d="M11.9,4.52C11.9,4.52,11.9,7.77,11.9,7.77C11.9,7.77,0,12.29,0,12.29C0,12.29,0,9.17,0,9.17C0,9.17,8.32,6.15,8.32,6.15C8.32,6.15,0,3.1,0,3.1C0,3.1,0,0,0,0C0,0,11.9,4.52,11.9,4.52Z" /></g></g></g></g></g></g></g></g><g id="i119"><animate repeatCount="indefinite" attributeName="opacity" dur="5.017s" begin="0s" fill="freeze" values="1; 1; 0" keyTimes="0; 1; 1" keySplines="0 0 1 1; 0 0 1 1" calcMode="spline" /><g transform="translate(572,342)"><animateTransform repeatCount="indefinite" type="translate" attributeName="transform" dur="5.017s" begin="0s" calcMode="spline" values="572 342; 572 342; 644 180" keyTimes="0; 1; 1" keySplines="0 0 1 1; 0 0 1 1" fill="freeze" /><g transform="scale(0,0)"><animateTransform repeatCount="indefinite" type="scale" attributeName="transform" dur="5.017s" begin="0s" calcMode="spline" values="0 0; 0 0; 1.1 1.1; 1 1" keyTimes="0; 1; 1; 1" keySplines="0 0 1 1; 0.333 0 0.667 1; 0.333 0 0.667 1" fill="freeze" /><g transform="translate(-592,-278)"><g clip-path="url(#i7)" id="i120"><g clip-path="url(#i0)"><g transform="matrix(2,0,0,2,593.24,280.02)"><g><rect ry="9.08" rx="9.08" height="36.2" width="72.4" y="-18.1" x="-36.2" fill="#d06d2f" /></g></g><g transform="matrix(2,0,0,2,554.56,266.34)"><g><path fill="#ffffff" d="M11.9,3.1C11.9,3.1,3.58,6.15,3.58,6.15C3.58,6.15,11.9,9.17,11.9,9.17C11.9,9.17,11.9,12.29,11.9,12.29C11.9,12.29,0,7.77,0,7.77C0,7.77,0,4.52,0,4.52C0,4.52,11.9,0,11.9,0C11.9,0,11.9,3.1,11.9,3.1Z" /></g></g><g transform="matrix(2,0,0,2,579.76,254.04)"><g><path fill="#ffffff" d="M8.25,0C8.25,0,11.72,0,11.72,0C11.72,0,3.47,23.54,3.47,23.54C3.47,23.54,0,23.54,0,23.54C0,23.54,8.25,0,8.25,0Z" /></g></g><g transform="matrix(2,0,0,2,604.1,266.34)"><g><path fill="#ffffff" d="M11.9,4.52C11.9,4.52,11.9,7.77,11.9,7.77C11.9,7.77,0,12.29,0,12.29C0,12.29,0,9.17,0,9.17C0,9.17,8.32,6.15,8.32,6.15C8.32,6.15,0,3.1,0,3.1C0,3.1,0,0,0,0C0,0,11.9,4.52,11.9,4.52Z" /></g></g></g></g></g></g></g></g><g id="i121"><animate repeatCount="indefinite" attributeName="opacity" dur="5.017s" begin="0s" fill="freeze" values="1; 1; 0" keyTimes="0; 1; 1" keySplines="0 0 1 1; 0 0 1 1" calcMode="spline" /><g transform="translate(204.119,763.548)"><animateTransform repeatCount="indefinite" type="translate" attributeName="transform" dur="5.017s" begin="0s" calcMode="spline" values="269 700; 269 700; 123 843" keyTimes="0; 0.548173; 1" keySplines="0 0 1 1; 0 0 1 1" fill="freeze" /><g transform="scale(1,1)"><animateTransform repeatCount="indefinite" type="scale" attributeName="transform" dur="5.017s" begin="0s" calcMode="spline" values="0 0; 0 0; 1.1 1.1; 1 1; 1 1" keyTimes="0; 0.548173; 0.614618; 0.681063; 1" keySplines="0 0 1 1; 0.333 0 0.667 1; 0.333 0 0.667 1; 0 0 1 1" fill="freeze" /><g transform="translate(-187,-800)"><g clip-path="url(#i14)" id="i122"><g clip-path="url(#i0)"><g transform="matrix(2,0,0,2,188.32,801)"><g><rect ry="9.08" rx="9.08" height="36.2" width="72.4" y="-18.1" x="-36.2" fill="#d06d2f" /></g></g><g transform="matrix(2,0,0,2,138.24,786.28)"><g><path fill="#ffffff" d="M11.57,0C11.57,0,11.57,12.6,11.57,12.6C11.57,12.6,8.65,12.6,8.65,12.6C8.65,12.6,8.65,7.43,8.65,7.43C8.65,7.43,2.92,7.43,2.92,7.43C2.92,7.43,2.92,12.6,2.92,12.6C2.92,12.6,0,12.6,0,12.6C0,12.6,0,0,0,0C0,0,2.92,0,2.92,0C2.92,0,2.92,4.97,2.92,4.97C2.92,4.97,8.65,4.97,8.65,4.97C8.65,4.97,8.65,0,8.65,0C8.65,0,11.57,0,11.57,0Z" /></g></g><g transform="matrix(2,0,0,2,164.5,786.26)"><g><path fill="#ffffff" d="M4.03,2.38C4.03,2.38,0,2.38,0,2.38C0,2.38,0,0,0,0C0,0,10.98,0,10.98,0C10.98,0,10.98,2.38,10.98,2.38C10.98,2.38,6.95,2.38,6.95,2.38C6.95,2.38,6.95,12.61,6.95,12.61C6.95,12.61,4.03,12.61,4.03,12.61C4.03,12.61,4.03,2.38,4.03,2.38Z" /></g></g><g transform="matrix(2,0,0,2,189.58,786.28)"><g><path fill="#ffffff" d="M11.47,12.6C11.47,12.6,11.45,5.04,11.45,5.04C11.45,5.04,7.74,11.27,7.74,11.27C7.74,11.27,6.43,11.27,6.43,11.27C6.43,11.27,2.74,5.2,2.74,5.2C2.74,5.2,2.74,12.6,2.74,12.6C2.74,12.6,0,12.6,0,12.6C0,12.6,0,0,0,0C0,0,2.41,0,2.41,0C2.41,0,7.13,7.83,7.13,7.83C7.13,7.83,11.77,0,11.77,0C11.77,0,14.17,0,14.17,0C14.17,0,14.21,12.6,14.21,12.6C14.21,12.6,11.47,12.6,11.47,12.6Z" /></g></g><g transform="matrix(2,0,0,2,223.96,786.28)"><g><path fill="#ffffff" d="M0,0C0,0,2.92,0,2.92,0C2.92,0,2.92,10.23,2.92,10.23C2.92,10.23,9.24,10.23,9.24,10.23C9.24,10.23,9.24,12.61,9.24,12.61C9.24,12.61,0,12.61,0,12.61C0,12.61,0,0.01,0,0.01C0,0.01,0,0,0,0Z" /></g></g></g></g></g></g></g></g><g visibility="hidden" id="i121"><animate repeatCount="indefinite" begin="0s" calcMode="discrete" dur="5.017s" values="hidden; visible; visible" keyTimes="0; 0.731049; 1" attributeName="visibility" /><animate repeatCount="indefinite" attributeName="opacity" dur="5.017s" begin="0s" fill="freeze" values="1; 1; 0" keyTimes="0; 1; 1" keySplines="0 0 1 1; 0 0 1 1" calcMode="spline" /><g transform="translate(269,700)"><animateTransform repeatCount="indefinite" type="translate" attributeName="transform" dur="5.017s" begin="0s" calcMode="spline" values="269 700; 269 700; 123 843" keyTimes="0; 1; 1" keySplines="0 0 1 1; 0 0 1 1" fill="freeze" /><g transform="scale(0,0)"><animateTransform repeatCount="indefinite" type="scale" attributeName="transform" dur="5.017s" begin="0s" calcMode="spline" values="0 0; 0 0; 1.1 1.1; 1 1" keyTimes="0; 1; 1; 1" keySplines="0 0 1 1; 0.333 0 0.667 1; 0.333 0 0.667 1" fill="freeze" /><g transform="translate(-187,-800)"><g clip-path="url(#i16)" id="i122"><g clip-path="url(#i0)"><g transform="matrix(2,0,0,2,188.32,801)" visibility="hidden"><animate repeatCount="indefinite" begin="0s" calcMode="discrete" dur="5.017s" values="hidden; visible; visible" keyTimes="0; 0.731049; 1" attributeName="visibility" /><g><rect ry="9.08" rx="9.08" height="36.2" width="72.4" y="-18.1" x="-36.2" fill="#d06d2f" /></g></g><g transform="matrix(2,0,0,2,138.24,786.28)" visibility="hidden"><animate repeatCount="indefinite" begin="0s" calcMode="discrete" dur="5.017s" values="hidden; visible; visible" keyTimes="0; 0.731049; 1" attributeName="visibility" /><g><path fill="#ffffff" d="M11.57,0C11.57,0,11.57,12.6,11.57,12.6C11.57,12.6,8.65,12.6,8.65,12.6C8.65,12.6,8.65,7.43,8.65,7.43C8.65,7.43,2.92,7.43,2.92,7.43C2.92,7.43,2.92,12.6,2.92,12.6C2.92,12.6,0,12.6,0,12.6C0,12.6,0,0,0,0C0,0,2.92,0,2.92,0C2.92,0,2.92,4.97,2.92,4.97C2.92,4.97,8.65,4.97,8.65,4.97C8.65,4.97,8.65,0,8.65,0C8.65,0,11.57,0,11.57,0Z" /></g></g><g transform="matrix(2,0,0,2,164.5,786.26)" visibility="hidden"><animate repeatCount="indefinite" begin="0s" calcMode="discrete" dur="5.017s" values="hidden; visible; visible" keyTimes="0; 0.731049; 1" attributeName="visibility" /><g><path fill="#ffffff" d="M4.03,2.38C4.03,2.38,0,2.38,0,2.38C0,2.38,0,0,0,0C0,0,10.98,0,10.98,0C10.98,0,10.98,2.38,10.98,2.38C10.98,2.38,6.95,2.38,6.95,2.38C6.95,2.38,6.95,12.61,6.95,12.61C6.95,12.61,4.03,12.61,4.03,12.61C4.03,12.61,4.03,2.38,4.03,2.38Z" /></g></g><g transform="matrix(2,0,0,2,189.58,786.28)" visibility="hidden"><animate repeatCount="indefinite" begin="0s" calcMode="discrete" dur="5.017s" values="hidden; visible; visible" keyTimes="0; 0.731049; 1" attributeName="visibility" /><g><path fill="#ffffff" d="M11.47,12.6C11.47,12.6,11.45,5.04,11.45,5.04C11.45,5.04,7.74,11.27,7.74,11.27C7.74,11.27,6.43,11.27,6.43,11.27C6.43,11.27,2.74,5.2,2.74,5.2C2.74,5.2,2.74,12.6,2.74,12.6C2.74,12.6,0,12.6,0,12.6C0,12.6,0,0,0,0C0,0,2.41,0,2.41,0C2.41,0,7.13,7.83,7.13,7.83C7.13,7.83,11.77,0,11.77,0C11.77,0,14.17,0,14.17,0C14.17,0,14.21,12.6,14.21,12.6C14.21,12.6,11.47,12.6,11.47,12.6Z" /></g></g><g transform="matrix(2,0,0,2,223.96,786.28)" visibility="hidden"><animate repeatCount="indefinite" begin="0s" calcMode="discrete" dur="5.017s" values="hidden; visible; visible" keyTimes="0; 0.731049; 1" attributeName="visibility" /><g><path fill="#ffffff" d="M0,0C0,0,2.92,0,2.92,0C2.92,0,2.92,10.23,2.92,10.23C2.92,10.23,9.24,10.23,9.24,10.23C9.24,10.23,9.24,12.61,9.24,12.61C9.24,12.61,0,12.61,0,12.61C0,12.61,0,0.01,0,0.01C0,0.01,0,0,0,0Z" /></g></g></g></g></g></g></g></g><g visibility="hidden" id="i123"><animate repeatCount="indefinite" begin="0s" calcMode="discrete" dur="5.017s" values="hidden; visible; visible" keyTimes="0; 0.797053; 1" attributeName="visibility" /><animate repeatCount="indefinite" attributeName="opacity" dur="5.017s" begin="0s" fill="freeze" values="1; 1; 0" keyTimes="0; 1; 1" keySplines="0 0 1 1; 0 0 1 1" calcMode="spline" /><g transform="translate(243,495)"><animateTransform repeatCount="indefinite" type="translate" attributeName="transform" dur="5.017s" begin="0s" calcMode="spline" values="243 495; 243 495; 85 394" keyTimes="0; 1; 1" keySplines="0 0 1 1; 0 0 1 1" fill="freeze" /><g transform="scale(0,0)"><animateTransform repeatCount="indefinite" type="scale" attributeName="transform" dur="5.017s" begin="0s" calcMode="spline" values="0 0; 0 0; 1.1 1.1; 1 1" keyTimes="0; 1; 1; 1" keySplines="0 0 1 1; 0.333 0 0.667 1; 0.333 0 0.667 1" fill="freeze" /><g transform="translate(-243,-495)"><g clip-path="url(#i21)" id="i124"><g clip-path="url(#i0)"><g transform="matrix(2,0,0,2,240.48,494.74)" visibility="hidden"><animate repeatCount="indefinite" begin="0s" calcMode="discrete" dur="5.017s" values="hidden; visible; visible" keyTimes="0; 0.797053; 1" attributeName="visibility" /><g><rect ry="9.08" rx="9.08" height="36.2" width="72.4" y="-18.1" x="-36.2" fill="#d06d2f" /></g></g><g transform="matrix(2,0,0,2,219.22,479.88)" visibility="hidden"><animate repeatCount="indefinite" begin="0s" calcMode="discrete" dur="5.017s" values="hidden; visible; visible" keyTimes="0; 0.797053; 1" attributeName="visibility" /><g><path fill="#ffffff" d="M0,11.76C0,11.76,1.74,9.68,1.74,9.68C2.47,10.66,3.28,11.17,4.25,11.17C5.5,11.17,6.16,10.42,6.16,8.93C6.16,8.93,6.16,2.51,6.16,2.51C6.16,2.51,1.42,2.51,1.42,2.51C1.42,2.51,1.42,0,1.42,0C1.42,0,9.27,0,9.27,0C9.27,0,9.27,8.76,9.27,8.76C9.27,12.1,7.59,13.74,4.41,13.74C2.6,13.74,1,13.05,0.01,11.77C0.01,11.77,0.99,13.04,0,11.76Z" /></g></g><g transform="matrix(2,0,0,2,241.78,479.42)" visibility="hidden"><animate repeatCount="indefinite" begin="0s" calcMode="discrete" dur="5.017s" values="hidden; visible; visible" keyTimes="0; 0.797053; 1" attributeName="visibility" /><g><path fill="#ffffff" d="M0,12.4C0,12.4,1.06,10.05,1.06,10.05C2.2,10.88,3.89,11.46,5.52,11.46C7.37,11.46,8.12,10.84,8.12,10.01C8.12,7.48,0.27,9.22,0.27,4.2C0.27,1.91,2.12,0,5.96,0C7.66,0,9.39,0.41,10.65,1.2C10.65,1.2,9.69,3.57,9.69,3.57C8.44,2.86,7.14,2.51,5.95,2.51C4.1,2.51,3.39,3.21,3.39,4.05C3.39,6.54,11.24,4.82,11.24,9.78C11.24,12.04,9.37,13.97,5.51,13.97C3.37,13.97,1.21,13.33,0.01,12.41C0.01,12.41,1.2,13.32,0,12.4Z" /></g></g></g></g></g></g></g></g><g id="i123"><animate repeatCount="indefinite" attributeName="opacity" dur="5.017s" begin="0s" fill="freeze" values="1; 1; 0" keyTimes="0; 1; 1" keySplines="0 0 1 1; 0 0 1 1" calcMode="spline" /><g transform="translate(190.389,461.369)"><animateTransform repeatCount="indefinite" type="translate" attributeName="transform" dur="5.017s" begin="0s" calcMode="spline" values="243 495; 243 495; 85 394" keyTimes="0; 0.614618; 1" keySplines="0 0 1 1; 0 0 1 1" fill="freeze" /><g transform="scale(1,1)"><animateTransform repeatCount="indefinite" type="scale" attributeName="transform" dur="5.017s" begin="0s" calcMode="spline" values="0 0; 0 0; 1.1 1.1; 1 1; 1 1" keyTimes="0; 0.614618; 0.681063; 0.747508; 1" keySplines="0 0 1 1; 0.333 0 0.667 1; 0.333 0 0.667 1; 0 0 1 1" fill="freeze" /><g transform="translate(-243,-495)"><g clip-path="url(#i23)" id="i124"><g clip-path="url(#i0)"><g transform="matrix(2,0,0,2,240.48,494.74)"><g><rect ry="9.08" rx="9.08" height="36.2" width="72.4" y="-18.1" x="-36.2" fill="#d06d2f" /></g></g><g transform="matrix(2,0,0,2,219.22,479.88)"><g><path fill="#ffffff" d="M0,11.76C0,11.76,1.74,9.68,1.74,9.68C2.47,10.66,3.28,11.17,4.25,11.17C5.5,11.17,6.16,10.42,6.16,8.93C6.16,8.93,6.16,2.51,6.16,2.51C6.16,2.51,1.42,2.51,1.42,2.51C1.42,2.51,1.42,0,1.42,0C1.42,0,9.27,0,9.27,0C9.27,0,9.27,8.76,9.27,8.76C9.27,12.1,7.59,13.74,4.41,13.74C2.6,13.74,1,13.05,0.01,11.77C0.01,11.77,0.99,13.04,0,11.76Z" /></g></g><g transform="matrix(2,0,0,2,241.78,479.42)"><g><path fill="#ffffff" d="M0,12.4C0,12.4,1.06,10.05,1.06,10.05C2.2,10.88,3.89,11.46,5.52,11.46C7.37,11.46,8.12,10.84,8.12,10.01C8.12,7.48,0.27,9.22,0.27,4.2C0.27,1.91,2.12,0,5.96,0C7.66,0,9.39,0.41,10.65,1.2C10.65,1.2,9.69,3.57,9.69,3.57C8.44,2.86,7.14,2.51,5.95,2.51C4.1,2.51,3.39,3.21,3.39,4.05C3.39,6.54,11.24,4.82,11.24,9.78C11.24,12.04,9.37,13.97,5.51,13.97C3.37,13.97,1.21,13.33,0.01,12.41C0.01,12.41,1.2,13.32,0,12.4Z" /></g></g></g></g></g></g></g></g><g visibility="hidden" id="i125"><animate repeatCount="indefinite" begin="0s" calcMode="discrete" dur="5.017s" values="hidden; visible; visible" keyTimes="0; 0.399027; 1" attributeName="visibility" /><animate repeatCount="indefinite" attributeName="opacity" dur="5.017s" begin="0s" fill="freeze" values="1; 1; 0" keyTimes="0; 1; 1" keySplines="0 0 1 1; 0 0 1 1" calcMode="spline" /><g transform="translate(565,679)"><animateTransform repeatCount="indefinite" type="translate" attributeName="transform" dur="5.017s" begin="0s" calcMode="spline" values="565 679; 565 679; 715 815" keyTimes="0; 1; 1" keySplines="0 0 1 1; 0 0 1 1" fill="freeze" /><g transform="scale(0,0)"><animateTransform repeatCount="indefinite" type="scale" attributeName="transform" dur="5.017s" begin="0s" calcMode="spline" values="0 0; 0 0; 1.1 1.1; 1 1" keyTimes="0; 1; 1; 1" keySplines="0 0 1 1; 0.333 0 0.667 1; 0.333 0 0.667 1" fill="freeze" /><g transform="translate(-623,-753)"><g clip-path="url(#i29)" id="i126"><g clip-path="url(#i0)"><g transform="matrix(2,0,0,2,624.06,754.52)" visibility="hidden"><animate repeatCount="indefinite" begin="0s" calcMode="discrete" dur="5.017s" values="hidden; visible; visible" keyTimes="0; 0.399027; 1" attributeName="visibility" /><g><rect ry="9.08" rx="9.08" height="36.2" width="72.4" y="-18.1" x="-36.2" fill="#d06d2f" /></g></g><g transform="matrix(2,0,0,2,583.34,733.96)" visibility="hidden"><animate repeatCount="indefinite" begin="0s" calcMode="discrete" dur="5.017s" values="hidden; visible; visible" keyTimes="0; 0.399027; 1" attributeName="visibility" /><g><path fill="#ffffff" d="M0.01,8.82C0.01,3.68,3.95,0,9.26,0C12.21,0,14.67,1.07,16.27,3.02C16.27,3.02,13.74,5.36,13.74,5.36C12.6,4.04,11.16,3.36,9.45,3.36C6.26,3.36,3.99,5.6,3.99,8.82C3.99,12.04,6.26,14.28,9.45,14.28C11.16,14.28,12.59,13.6,13.74,12.26C13.74,12.26,16.27,14.6,16.27,14.6C14.66,16.57,12.2,17.64,9.23,17.64C3.94,17.64,0,13.96,0,8.82C0,8.82,0.01,13.96,0.01,8.82Z" /></g></g><g transform="matrix(2,0,0,2,619.9,740.34)" visibility="hidden"><animate repeatCount="indefinite" begin="0s" calcMode="discrete" dur="5.017s" values="hidden; visible; visible" keyTimes="0; 0.399027; 1" attributeName="visibility" /><g><path fill="#ffffff" d="M11.59,7.11C11.59,7.11,7.35,7.11,7.35,7.11C7.35,7.11,7.35,11.25,7.35,11.25C7.35,11.25,4.21,11.25,4.21,11.25C4.21,11.25,4.21,7.11,4.21,7.11C4.21,7.11,0,7.11,0,7.11C0,7.11,0,4.14,0,4.14C0,4.14,4.21,4.14,4.21,4.14C4.21,4.14,4.21,0,4.21,0C4.21,0,7.35,0,7.35,0C7.35,0,7.35,4.14,7.35,4.14C7.35,4.14,11.59,4.14,11.59,4.14C11.59,4.14,11.59,7.11,11.59,7.11Z" /></g></g><g transform="matrix(2,0,0,2,649.34,740.34)" visibility="hidden"><animate repeatCount="indefinite" begin="0s" calcMode="discrete" dur="5.017s" values="hidden; visible; visible" keyTimes="0; 0.399027; 1" attributeName="visibility" /><g><path fill="#ffffff" d="M11.59,7.11C11.59,7.11,7.35,7.11,7.35,7.11C7.35,7.11,7.35,11.25,7.35,11.25C7.35,11.25,4.21,11.25,4.21,11.25C4.21,11.25,4.21,7.11,4.21,7.11C4.21,7.11,0,7.11,0,7.11C0,7.11,0,4.14,0,4.14C0,4.14,4.21,4.14,4.21,4.14C4.21,4.14,4.21,0,4.21,0C4.21,0,7.35,0,7.35,0C7.35,0,7.35,4.14,7.35,4.14C7.35,4.14,11.59,4.14,11.59,4.14C11.59,4.14,11.59,7.11,11.59,7.11Z" /></g></g></g></g></g></g></g></g><g visibility="hidden" id="i127"><animate repeatCount="indefinite" begin="0s" calcMode="discrete" dur="5.017s" values="hidden; visible; visible" keyTimes="0; 0.638042; 1" attributeName="visibility" /><animate repeatCount="indefinite" attributeName="opacity" dur="5.017s" begin="0s" fill="freeze" values="1; 1; 0" keyTimes="0; 1; 1" keySplines="0 0 1 1; 0 0 1 1" calcMode="spline" /><g transform="translate(749.5,574)"><animateTransform repeatCount="indefinite" type="translate" attributeName="transform" dur="5.017s" begin="0s" calcMode="spline" values="749.5 574; 749.5 574; 920.5 464" keyTimes="0; 1; 1" keySplines="0 0 1 1; 0 0 1 1" fill="freeze" /><g transform="scale(0,0)"><animateTransform repeatCount="indefinite" type="scale" attributeName="transform" dur="5.017s" begin="0s" calcMode="spline" values="0 0; 0 0; 1.1 1.1; 1 1" keyTimes="0; 1; 1; 1" keySplines="0 0 1 1; 0.333 0 0.667 1; 0.333 0 0.667 1" fill="freeze" /><g transform="translate(-847.5,-537)"><g clip-path="url(#i36)" id="i128"><g clip-path="url(#i0)"><g transform="matrix(2,0,0,2,846.82,535.34)" visibility="hidden"><animate repeatCount="indefinite" begin="0s" calcMode="discrete" dur="5.017s" values="hidden; visible; visible" keyTimes="0; 0.638042; 1" attributeName="visibility" /><g><rect ry="9.08" rx="9.08" height="36.2" width="72.4" y="-18.1" x="-36.2" fill="#d06d2f" /></g></g><g transform="matrix(2,0,0,2,797.52,521.94)" visibility="hidden"><animate repeatCount="indefinite" begin="0s" calcMode="discrete" dur="5.017s" values="hidden; visible; visible" keyTimes="0; 0.638042; 1" attributeName="visibility" /><g><path fill="#ffffff" d="M0,11.13C0,11.13,1.64,9.16,1.64,9.16C2.33,10.09,3.1,10.57,4.01,10.57C5.2,10.57,5.82,9.86,5.82,8.45C5.82,8.45,5.82,2.37,5.82,2.37C5.82,2.37,1.33,2.37,1.33,2.37C1.33,2.37,1.33,0,1.33,0C1.33,0,8.76,0,8.76,0C8.76,0,8.76,8.29,8.76,8.29C8.76,11.45,7.17,13,4.16,13C2.44,13,0.93,12.34,0,11.14C0,11.14,0.93,12.33,0,11.13Z" /></g></g><g transform="matrix(2,0,0,2,817,521.92)" visibility="hidden"><animate repeatCount="indefinite" begin="0s" calcMode="discrete" dur="5.017s" values="hidden; visible; visible" keyTimes="0; 0.638042; 1" attributeName="visibility" /><g><path fill="#ffffff" d="M9.17,7.8C9.17,7.8,7.14,2.91,7.14,2.91C7.14,2.91,5.11,7.8,5.11,7.8C5.11,7.8,9.16,7.8,9.16,7.8C9.16,7.8,9.17,7.8,9.17,7.8ZM10.1,10.05C10.1,10.05,4.16,10.05,4.16,10.05C4.16,10.05,3.03,12.79,3.03,12.79C3.03,12.79,0,12.79,0,12.79C0,12.79,5.7,0,5.7,0C5.7,0,8.62,0,8.62,0C8.62,0,14.34,12.79,14.34,12.79C14.34,12.79,11.23,12.79,11.23,12.79C11.23,12.79,10.1,10.05,10.1,10.05Z" /></g></g><g transform="matrix(2,0,0,2,843.58,521.92)" visibility="hidden"><animate repeatCount="indefinite" begin="0s" calcMode="discrete" dur="5.017s" values="hidden; visible; visible" keyTimes="0; 0.638042; 1" attributeName="visibility" /><g><path fill="#ffffff" d="M13.97,0C13.97,0,8.44,12.79,8.44,12.79C8.44,12.79,5.52,12.79,5.52,12.79C5.52,12.79,0,0,0,0C0,0,3.2,0,3.2,0C3.2,0,7.09,9.13,7.09,9.13C7.09,9.13,11.04,0,11.04,0C11.04,0,13.98,0,13.98,0C13.98,0,13.97,0,13.97,0Z" /></g></g><g transform="matrix(2,0,0,2,869.44,521.92)" visibility="hidden"><animate repeatCount="indefinite" begin="0s" calcMode="discrete" dur="5.017s" values="hidden; visible; visible" keyTimes="0; 0.638042; 1" attributeName="visibility" /><g><path fill="#ffffff" d="M9.17,7.8C9.17,7.8,7.14,2.91,7.14,2.91C7.14,2.91,5.11,7.8,5.11,7.8C5.11,7.8,9.16,7.8,9.16,7.8C9.16,7.8,9.17,7.8,9.17,7.8ZM10.1,10.05C10.1,10.05,4.16,10.05,4.16,10.05C4.16,10.05,3.03,12.79,3.03,12.79C3.03,12.79,0,12.79,0,12.79C0,12.79,5.7,0,5.7,0C5.7,0,8.62,0,8.62,0C8.62,0,14.34,12.79,14.34,12.79C14.34,12.79,11.23,12.79,11.23,12.79C11.23,12.79,10.1,10.05,10.1,10.05Z" /></g></g></g></g></g></g></g></g><g id="i127"><animate repeatCount="indefinite" attributeName="opacity" dur="5.017s" begin="0s" fill="freeze" values="1; 1; 0" keyTimes="0; 0.986711; 1" keySplines="0 0 1 1; 0 0 1 1" calcMode="spline" /><g transform="translate(852.136,507.977)"><animateTransform repeatCount="indefinite" type="translate" attributeName="transform" dur="5.017s" begin="0s" calcMode="spline" values="749.5 574; 749.5 574; 920.5 464" keyTimes="0; 0.455149; 1" keySplines="0 0 1 1; 0 0 1 1" fill="freeze" /><g transform="scale(1,1)"><animateTransform repeatCount="indefinite" type="scale" attributeName="transform" dur="5.017s" begin="0s" calcMode="spline" values="0 0; 0 0; 1.1 1.1; 1 1; 1 1" keyTimes="0; 0.455149; 0.521595; 0.58804; 1" keySplines="0 0 1 1; 0.333 0 0.667 1; 0.333 0 0.667 1; 0 0 1 1" fill="freeze" /><g transform="translate(-847.5,-537)"><g clip-path="url(#i38)" id="i128"><g clip-path="url(#i0)"><g transform="matrix(2,0,0,2,846.82,535.34)"><g><rect ry="9.08" rx="9.08" height="36.2" width="72.4" y="-18.1" x="-36.2" fill="#d06d2f" /></g></g><g transform="matrix(2,0,0,2,797.52,521.94)"><g><path fill="#ffffff" d="M0,11.13C0,11.13,1.64,9.16,1.64,9.16C2.33,10.09,3.1,10.57,4.01,10.57C5.2,10.57,5.82,9.86,5.82,8.45C5.82,8.45,5.82,2.37,5.82,2.37C5.82,2.37,1.33,2.37,1.33,2.37C1.33,2.37,1.33,0,1.33,0C1.33,0,8.76,0,8.76,0C8.76,0,8.76,8.29,8.76,8.29C8.76,11.45,7.17,13,4.16,13C2.44,13,0.93,12.34,0,11.14C0,11.14,0.93,12.33,0,11.13Z" /></g></g><g transform="matrix(2,0,0,2,817,521.92)"><g><path fill="#ffffff" d="M9.17,7.8C9.17,7.8,7.14,2.91,7.14,2.91C7.14,2.91,5.11,7.8,5.11,7.8C5.11,7.8,9.16,7.8,9.16,7.8C9.16,7.8,9.17,7.8,9.17,7.8ZM10.1,10.05C10.1,10.05,4.16,10.05,4.16,10.05C4.16,10.05,3.03,12.79,3.03,12.79C3.03,12.79,0,12.79,0,12.79C0,12.79,5.7,0,5.7,0C5.7,0,8.62,0,8.62,0C8.62,0,14.34,12.79,14.34,12.79C14.34,12.79,11.23,12.79,11.23,12.79C11.23,12.79,10.1,10.05,10.1,10.05Z" /></g></g><g transform="matrix(2,0,0,2,843.58,521.92)"><g><path fill="#ffffff" d="M13.97,0C13.97,0,8.44,12.79,8.44,12.79C8.44,12.79,5.52,12.79,5.52,12.79C5.52,12.79,0,0,0,0C0,0,3.2,0,3.2,0C3.2,0,7.09,9.13,7.09,9.13C7.09,9.13,11.04,0,11.04,0C11.04,0,13.98,0,13.98,0C13.98,0,13.97,0,13.97,0Z" /></g></g><g transform="matrix(2,0,0,2,869.44,521.92)"><g><path fill="#ffffff" d="M9.17,7.8C9.17,7.8,7.14,2.91,7.14,2.91C7.14,2.91,5.11,7.8,5.11,7.8C5.11,7.8,9.16,7.8,9.16,7.8C9.16,7.8,9.17,7.8,9.17,7.8ZM10.1,10.05C10.1,10.05,4.16,10.05,4.16,10.05C4.16,10.05,3.03,12.79,3.03,12.79C3.03,12.79,0,12.79,0,12.79C0,12.79,5.7,0,5.7,0C5.7,0,8.62,0,8.62,0C8.62,0,14.34,12.79,14.34,12.79C14.34,12.79,11.23,12.79,11.23,12.79C11.23,12.79,10.1,10.05,10.1,10.05Z" /></g></g></g></g></g></g></g></g></svg>